<?xml version="1.0" encoding="UTF-8"?>
<svg xmlns="http://www.w3.org/2000/svg" xmlns:xlink="http://www.w3.org/1999/xlink" width="324.281" height="267.588" viewBox="0 0 324.281 267.588">
<defs>
<g>
<g id="glyph-0-0">
<path d="M 2.375 -0.484375 L 2.375 -6.421875 C 2.375 -6.734375 2.3125 -6.890625 1.890625 -6.890625 L 1.390625 -6.890625 C 1.03125 -6.890625 0.921875 -6.78125 0.921875 -6.421875 L 0.921875 -0.484375 C 0.921875 -0.125 1.03125 0 1.390625 0 L 1.890625 0 C 2.28125 0 2.375 -0.125 2.375 -0.484375 Z M 2.375 -0.484375 "/>
</g>
<g id="glyph-0-1">
<path d="M 4.96875 -0.484375 L 4.96875 -3.234375 C 4.96875 -4.25 4.53125 -4.65625 3.515625 -4.65625 C 2.46875 -4.65625 2.03125 -3.90625 1.890625 -3.640625 L 1.890625 -4.140625 C 1.890625 -4.453125 1.8125 -4.609375 1.40625 -4.609375 L 1.078125 -4.609375 C 0.71875 -4.609375 0.59375 -4.5 0.59375 -4.140625 L 0.59375 -0.484375 C 0.59375 -0.125 0.703125 0 1.078125 0 L 1.46875 0 C 1.84375 0 1.953125 -0.125 1.953125 -0.484375 L 1.953125 -2.671875 C 1.953125 -3.53125 2.53125 -3.9375 3.046875 -3.9375 C 3.515625 -3.9375 3.625 -3.71875 3.625 -3.203125 L 3.625 -0.484375 C 3.625 -0.15625 3.6875 0 4.09375 0 L 4.484375 0 C 4.875 0 4.96875 -0.125 4.96875 -0.484375 Z M 4.96875 -0.484375 "/>
</g>
<g id="glyph-0-2">
<path d="M 3.703125 -0.46875 C 3.703125 -0.5 3.6875 -0.5625 3.625 -0.78125 C 3.578125 -0.96875 3.5625 -1.03125 3.46875 -1.03125 C 3.421875 -1.03125 3.40625 -1.03125 3.34375 -0.96875 C 3.234375 -0.890625 2.96875 -0.671875 2.546875 -0.671875 C 2.3125 -0.671875 2.171875 -0.828125 2.171875 -1.484375 L 2.171875 -3.828125 L 3.046875 -3.828125 C 3.171875 -3.828125 3.53125 -3.828125 3.53125 -4.1875 C 3.53125 -4.546875 3.171875 -4.546875 3.046875 -4.546875 L 2.171875 -4.546875 L 2.171875 -5.375 C 2.171875 -5.6875 2.09375 -5.859375 1.6875 -5.859375 L 1.375 -5.859375 C 1.03125 -5.859375 0.90625 -5.75 0.90625 -5.375 L 0.90625 -4.546875 L 0.671875 -4.546875 C 0.5625 -4.546875 0.203125 -4.546875 0.203125 -4.1875 C 0.203125 -3.828125 0.5625 -3.828125 0.671875 -3.828125 L 0.875 -3.828125 L 0.875 -1.328125 C 0.875 -0.3125 1.234375 0.109375 1.921875 0.109375 C 2 0.109375 2.4375 0.109375 2.96875 -0.046875 C 3.125 -0.09375 3.703125 -0.28125 3.703125 -0.46875 Z M 3.703125 -0.46875 "/>
</g>
<g id="glyph-0-3">
<path d="M 4.765625 -2.578125 C 4.765625 -3.859375 4.15625 -4.71875 2.6875 -4.71875 C 1.09375 -4.71875 0.3125 -3.828125 0.3125 -2.3125 C 0.3125 -0.6875 1.25 0.109375 2.8125 0.109375 C 3.1875 0.109375 3.75 0.0625 4.40625 -0.265625 C 4.625 -0.375 4.703125 -0.40625 4.703125 -0.53125 C 4.703125 -0.59375 4.671875 -0.890625 4.65625 -0.96875 C 4.625 -1.265625 4.609375 -1.28125 4.515625 -1.28125 C 4.484375 -1.28125 4.46875 -1.28125 4.359375 -1.1875 C 3.765625 -0.671875 3.171875 -0.609375 2.859375 -0.609375 C 1.734375 -0.609375 1.609375 -1.484375 1.578125 -2.125 L 4.28125 -2.125 C 4.515625 -2.125 4.765625 -2.140625 4.765625 -2.578125 Z M 3.65625 -2.65625 L 1.59375 -2.65625 C 1.625 -3.265625 1.8125 -4 2.6875 -4 C 3.484375 -4 3.625 -3.421875 3.65625 -2.65625 Z M 3.65625 -2.65625 "/>
</g>
<g id="glyph-0-4">
<path d="M 3.53125 -3.921875 L 3.53125 -4.390625 C 3.53125 -4.59375 3.53125 -4.65625 3.359375 -4.65625 C 3.078125 -4.65625 2.359375 -4.5625 1.890625 -3.484375 L 1.875 -3.484375 L 1.875 -4.140625 C 1.875 -4.453125 1.8125 -4.609375 1.40625 -4.609375 L 1.078125 -4.609375 C 0.71875 -4.609375 0.609375 -4.5 0.609375 -4.140625 L 0.609375 -0.484375 C 0.609375 -0.125 0.71875 0 1.078125 0 L 1.453125 0 C 1.828125 0 1.921875 -0.125 1.921875 -0.484375 L 1.921875 -2.28125 C 1.921875 -3.234375 2.71875 -3.625 3.34375 -3.65625 C 3.515625 -3.671875 3.53125 -3.671875 3.53125 -3.921875 Z M 3.53125 -3.921875 "/>
</g>
<g id="glyph-0-5">
<path d="M 3.78125 -6.171875 L 3.78125 -6.625 C 3.78125 -6.859375 3.78125 -6.875 3.4375 -6.953125 C 3.15625 -7 2.9375 -7 2.796875 -7 C 2.046875 -7 0.859375 -6.84375 0.859375 -5.34375 L 0.859375 -4.546875 C 0.640625 -4.546875 0.296875 -4.546875 0.296875 -4.1875 C 0.296875 -3.828125 0.640625 -3.828125 0.859375 -3.828125 L 0.859375 -0.484375 C 0.859375 -0.125 0.96875 0 1.328125 0 L 1.703125 0 C 2.078125 0 2.171875 -0.125 2.171875 -0.484375 L 2.171875 -3.828125 L 2.65625 -3.828125 C 2.765625 -3.828125 3.125 -3.828125 3.125 -4.1875 C 3.125 -4.546875 2.765625 -4.546875 2.65625 -4.546875 L 2.140625 -4.546875 L 2.140625 -5.640625 C 2.140625 -5.890625 2.140625 -6.296875 2.796875 -6.296875 C 3.109375 -6.296875 3.3125 -6.203125 3.515625 -6.015625 C 3.578125 -5.9375 3.609375 -5.90625 3.65625 -5.90625 C 3.78125 -5.90625 3.78125 -6.015625 3.78125 -6.171875 Z M 3.78125 -6.171875 "/>
</g>
<g id="glyph-0-6">
<path d="M 4.703125 -0.484375 L 4.703125 -3.140625 C 4.703125 -4.703125 3.203125 -4.71875 2.703125 -4.71875 C 2.234375 -4.71875 1.734375 -4.6875 1.078125 -4.40625 C 0.859375 -4.3125 0.8125 -4.28125 0.8125 -4.171875 C 0.8125 -4.109375 0.875 -3.53125 0.890625 -3.453125 C 0.890625 -3.390625 0.9375 -3.34375 1.015625 -3.34375 C 1.0625 -3.34375 1.09375 -3.375 1.125 -3.40625 C 1.546875 -3.84375 2.046875 -4.0625 2.65625 -4.0625 C 3.203125 -4.0625 3.359375 -3.734375 3.359375 -3.15625 L 3.359375 -2.796875 C 3.015625 -2.796875 0.40625 -2.78125 0.40625 -1.328125 C 0.40625 -0.625 0.96875 0.109375 1.84375 0.109375 C 2.171875 0.109375 2.921875 0.015625 3.390625 -0.671875 L 3.390625 -0.484375 C 3.390625 -0.15625 3.453125 0 3.859375 0 L 4.234375 0 C 4.609375 0 4.703125 -0.125 4.703125 -0.484375 Z M 3.359375 -1.53125 C 3.359375 -0.609375 2.421875 -0.609375 2.390625 -0.609375 C 1.96875 -0.609375 1.703125 -0.96875 1.703125 -1.34375 C 1.703125 -2.3125 3.078125 -2.390625 3.359375 -2.390625 Z M 3.359375 -1.53125 "/>
</g>
<g id="glyph-0-7">
<path d="M 4.546875 -0.5 C 4.546875 -0.609375 4.5 -1.0625 4.484375 -1.1875 C 4.484375 -1.21875 4.46875 -1.328125 4.359375 -1.328125 C 4.328125 -1.328125 4.296875 -1.328125 4.203125 -1.21875 C 4.03125 -1.078125 3.5625 -0.671875 2.75 -0.671875 C 1.71875 -0.671875 1.71875 -1.671875 1.71875 -2.3125 C 1.71875 -3.109375 1.765625 -3.9375 2.78125 -3.9375 C 3.421875 -3.9375 3.703125 -3.78125 4.046875 -3.484375 C 4.171875 -3.375 4.1875 -3.375 4.234375 -3.375 C 4.328125 -3.375 4.359375 -3.46875 4.359375 -3.515625 C 4.375 -3.59375 4.484375 -4.140625 4.484375 -4.1875 C 4.484375 -4.28125 4.40625 -4.328125 4.25 -4.40625 C 3.765625 -4.625 3.46875 -4.71875 2.765625 -4.71875 C 1.296875 -4.71875 0.375 -4.03125 0.375 -2.28125 C 0.375 -0.640625 1.21875 0.109375 2.71875 0.109375 C 2.984375 0.109375 3.59375 0.09375 4.25 -0.234375 C 4.53125 -0.390625 4.546875 -0.390625 4.546875 -0.5 Z M 4.546875 -0.5 "/>
</g>
<g id="glyph-0-8">
<path d="M 3.9375 -1.40625 C 3.9375 -1.953125 3.640625 -2.3125 3.453125 -2.46875 C 3.0625 -2.828125 2.71875 -2.875 2.296875 -2.96875 C 1.75 -3.0625 1.34375 -3.140625 1.34375 -3.53125 C 1.34375 -3.9375 1.671875 -4.015625 2.0625 -4.015625 C 2.734375 -4.015625 3.09375 -3.765625 3.34375 -3.546875 C 3.453125 -3.453125 3.46875 -3.453125 3.515625 -3.453125 C 3.609375 -3.453125 3.625 -3.53125 3.640625 -3.578125 C 3.65625 -3.65625 3.75 -4.21875 3.75 -4.265625 C 3.75 -4.421875 3.234375 -4.5625 3.125 -4.59375 C 2.71875 -4.703125 2.40625 -4.71875 2.140625 -4.71875 C 1.703125 -4.71875 0.375 -4.71875 0.375 -3.296875 C 0.375 -2.8125 0.59375 -2.515625 0.859375 -2.28125 C 1.203125 -1.953125 1.59375 -1.890625 2.15625 -1.78125 C 2.4375 -1.734375 2.953125 -1.640625 2.953125 -1.203125 C 2.953125 -0.734375 2.5625 -0.671875 2.171875 -0.671875 C 1.734375 -0.671875 1.1875 -0.796875 0.71875 -1.34375 C 0.671875 -1.40625 0.640625 -1.4375 0.578125 -1.4375 C 0.484375 -1.4375 0.453125 -1.34375 0.453125 -1.28125 C 0.421875 -1.140625 0.3125 -0.578125 0.3125 -0.484375 C 0.3125 -0.296875 1.046875 -0.0625 1.046875 -0.0625 C 1.59375 0.109375 2 0.109375 2.171875 0.109375 C 2.6875 0.109375 3.9375 0.0625 3.9375 -1.40625 Z M 3.9375 -1.40625 "/>
</g>
<g id="glyph-0-9">
<path d="M 5.90625 -0.484375 L 5.90625 -0.609375 C 5.90625 -1.09375 5.6875 -1.09375 5.359375 -1.09375 L 3.8125 -1.078125 L 2.359375 -1.046875 L 2.359375 -3.09375 L 4.984375 -3.09375 C 5.28125 -3.09375 5.453125 -3.15625 5.453125 -3.5625 C 5.453125 -3.921875 5.328125 -4.03125 4.984375 -4.03125 L 2.359375 -4.03125 L 2.359375 -5.859375 L 2.859375 -5.859375 L 5.1875 -5.828125 C 5.53125 -5.828125 5.765625 -5.828125 5.765625 -6.3125 L 5.765625 -6.390625 C 5.765625 -6.703125 5.6875 -6.859375 5.28125 -6.859375 L 1.375 -6.859375 C 1.03125 -6.859375 0.90625 -6.75 0.90625 -6.390625 L 0.90625 -0.484375 C 0.90625 -0.125 1.015625 0 1.375 0 L 5.4375 0 C 5.8125 0 5.90625 -0.125 5.90625 -0.484375 Z M 5.90625 -0.484375 "/>
</g>
<g id="glyph-0-10">
<path d="M 4.703125 -0.21875 C 4.703125 -0.296875 4.671875 -0.34375 4.59375 -0.421875 L 2.984375 -2.359375 L 4.4375 -4.125 C 4.53125 -4.25 4.53125 -4.28125 4.53125 -4.328125 C 4.53125 -4.546875 4.328125 -4.546875 4.1875 -4.546875 L 3.75 -4.546875 C 3.578125 -4.546875 3.453125 -4.546875 3.3125 -4.40625 C 3.265625 -4.359375 2.625 -3.484375 2.453125 -3.265625 L 1.59375 -4.328125 C 1.4375 -4.546875 1.328125 -4.546875 1.09375 -4.546875 L 0.65625 -4.546875 C 0.53125 -4.546875 0.3125 -4.546875 0.3125 -4.328125 C 0.3125 -4.265625 0.34375 -4.21875 0.40625 -4.140625 L 1.90625 -2.359375 L 0.34375 -0.421875 C 0.28125 -0.34375 0.234375 -0.296875 0.234375 -0.21875 C 0.234375 0 0.453125 0 0.59375 0 L 1.03125 0 C 1.34375 0 1.375 -0.03125 1.59375 -0.359375 L 2.4375 -1.625 L 3.453125 -0.203125 C 3.59375 0 3.71875 0 3.921875 0 L 4.359375 0 C 4.5 0 4.703125 0 4.703125 -0.21875 Z M 4.703125 -0.21875 "/>
</g>
<g id="glyph-0-11">
<path d="M 5.203125 -2.296875 C 5.203125 -2.78125 5.203125 -4.65625 3.40625 -4.65625 C 2.8125 -4.65625 2.28125 -4.421875 1.921875 -4.078125 C 1.921875 -4.453125 1.78125 -4.546875 1.453125 -4.546875 L 1.078125 -4.546875 C 0.71875 -4.546875 0.609375 -4.4375 0.609375 -4.078125 L 0.609375 1.453125 C 0.609375 1.8125 0.71875 1.921875 1.078125 1.921875 L 1.484375 1.921875 C 1.859375 1.921875 1.953125 1.796875 1.953125 1.453125 L 1.953125 -0.390625 C 2.40625 0.109375 2.953125 0.109375 3.09375 0.109375 C 5.203125 0.109375 5.203125 -1.796875 5.203125 -2.296875 Z M 3.84375 -2.28125 C 3.84375 -1.875 3.84375 -0.609375 2.71875 -0.609375 C 2.5 -0.609375 2.3125 -0.6875 2.203125 -0.78125 C 1.953125 -0.9375 1.953125 -1 1.953125 -1.171875 L 1.953125 -3.5625 C 2.0625 -3.65625 2.390625 -3.890625 2.828125 -3.890625 C 3.828125 -3.890625 3.84375 -2.71875 3.84375 -2.28125 Z M 3.84375 -2.28125 "/>
</g>
<g id="glyph-0-12">
<path d="M 1.921875 -0.484375 L 1.921875 -4.078125 C 1.921875 -4.390625 1.859375 -4.546875 1.453125 -4.546875 L 1.078125 -4.546875 C 0.71875 -4.546875 0.609375 -4.4375 0.609375 -4.078125 L 0.609375 -0.484375 C 0.609375 -0.125 0.71875 0 1.078125 0 L 1.453125 0 C 1.828125 0 1.921875 -0.125 1.921875 -0.484375 Z M 2 -6.015625 L 2 -6.21875 C 2 -6.53125 1.921875 -6.6875 1.515625 -6.6875 L 1.015625 -6.6875 C 0.640625 -6.6875 0.53125 -6.5625 0.53125 -6.21875 L 0.53125 -6.015625 C 0.53125 -5.734375 0.59375 -5.546875 1.015625 -5.546875 L 1.515625 -5.546875 C 1.9375 -5.546875 2 -5.71875 2 -6.015625 Z M 2 -6.015625 "/>
</g>
<g id="glyph-0-13">
<path d="M 5.140625 -2.234375 C 5.140625 -3.859375 4.359375 -4.71875 2.734375 -4.71875 C 1.078125 -4.71875 0.3125 -3.828125 0.3125 -2.234375 C 0.3125 -0.609375 1.15625 0.109375 2.71875 0.109375 C 4.28125 0.109375 5.140625 -0.609375 5.140625 -2.234375 Z M 3.796875 -2.359375 C 3.796875 -1.5625 3.796875 -0.671875 2.734375 -0.671875 C 1.65625 -0.671875 1.65625 -1.5625 1.65625 -2.359375 C 1.65625 -3.125 1.65625 -4 2.71875 -4 C 3.796875 -4 3.796875 -3.125 3.796875 -2.359375 Z M 3.796875 -2.359375 "/>
</g>
<g id="glyph-0-14">
<path d="M 7.28125 -3.40625 C 7.28125 -4.1875 7.140625 -5.140625 6.59375 -5.859375 C 5.84375 -6.78125 4.65625 -6.890625 4 -6.890625 L 1.375 -6.890625 C 1.03125 -6.890625 0.90625 -6.78125 0.90625 -6.421875 L 0.90625 -0.484375 C 0.90625 -0.125 1.015625 0 1.375 0 L 4 0 C 6.421875 0 7.28125 -1.453125 7.28125 -3.40625 Z M 5.84375 -3.40625 C 5.84375 -2.28125 5.734375 -0.859375 3.625 -0.859375 L 2.328125 -0.859375 L 2.328125 -6.046875 L 3.609375 -6.046875 C 5.75 -6.046875 5.84375 -4.515625 5.84375 -3.40625 Z M 5.84375 -3.40625 "/>
</g>
<g id="glyph-0-15">
<path d="M 8.796875 -0.484375 L 8.796875 -6.421875 C 8.796875 -6.734375 8.734375 -6.890625 8.328125 -6.890625 L 7.5 -6.890625 C 7.25 -6.890625 7 -6.875 6.828125 -6.46875 L 5.515625 -3.25 C 5.3125 -2.75 4.9375 -1.828125 4.859375 -1.484375 L 4.84375 -1.484375 C 4.765625 -1.84375 4.359375 -2.828125 4.140625 -3.34375 L 2.875 -6.484375 C 2.703125 -6.890625 2.390625 -6.890625 2.203125 -6.890625 L 1.375 -6.890625 C 1.03125 -6.890625 0.90625 -6.78125 0.90625 -6.421875 L 0.90625 -0.484375 C 0.90625 -0.125 1.015625 0 1.375 0 L 1.65625 0 C 2.03125 0 2.125 -0.125 2.125 -0.484375 L 2.125 -5.609375 L 2.140625 -5.609375 C 2.25 -5.171875 2.6875 -4.0625 2.9375 -3.484375 L 4.078125 -0.640625 C 4.265625 -0.21875 4.5 -0.21875 4.84375 -0.21875 C 5.171875 -0.21875 5.421875 -0.21875 5.59375 -0.640625 L 6.859375 -3.765625 C 6.96875 -4 7.5 -5.359375 7.578125 -5.609375 L 7.578125 -0.484375 C 7.578125 -0.15625 7.65625 0 8.0625 0 L 8.328125 0 C 8.703125 0 8.796875 -0.125 8.796875 -0.484375 Z M 8.796875 -0.484375 "/>
</g>
<g id="glyph-0-16">
<path d="M 4.953125 -0.484375 L 4.953125 -6.421875 C 4.953125 -6.734375 4.890625 -6.890625 4.484375 -6.890625 L 4.109375 -6.890625 C 3.734375 -6.890625 3.640625 -6.765625 3.640625 -6.421875 L 3.640625 -4.15625 C 3.1875 -4.59375 2.6875 -4.65625 2.390625 -4.65625 C 0.375 -4.65625 0.375 -2.75 0.375 -2.265625 C 0.375 -1.8125 0.375 0.109375 2.328125 0.109375 C 2.75 0.109375 3.1875 -0.015625 3.609375 -0.46875 C 3.609375 -0.09375 3.75 0 4.078125 0 L 4.484375 0 C 4.859375 0 4.953125 -0.125 4.953125 -0.484375 Z M 3.609375 -1.25 C 3.609375 -1.078125 3.609375 -0.984375 3.3125 -0.78125 C 3.078125 -0.625 2.84375 -0.609375 2.71875 -0.609375 C 1.71875 -0.609375 1.71875 -1.515625 1.71875 -2.265625 C 1.71875 -3.015625 1.71875 -3.9375 2.828125 -3.9375 C 3.125 -3.9375 3.390625 -3.84375 3.609375 -3.640625 Z M 3.609375 -1.25 "/>
</g>
<g id="glyph-0-17">
<path d="M 1.921875 -0.484375 L 1.921875 -6.421875 C 1.921875 -6.734375 1.859375 -6.890625 1.453125 -6.890625 L 1.078125 -6.890625 C 0.71875 -6.890625 0.609375 -6.78125 0.609375 -6.421875 L 0.609375 -0.484375 C 0.609375 -0.125 0.71875 0 1.078125 0 L 1.453125 0 C 1.828125 0 1.921875 -0.125 1.921875 -0.484375 Z M 1.921875 -0.484375 "/>
</g>
<g id="glyph-1-0">
<path d="M 5.640625 -3.53125 L 5.03125 -3.53125 L 4.265625 -1.140625 C 4.203125 -0.90625 4.125 -0.65625 4.09375 -0.46875 C 4.046875 -0.796875 3.765625 -1.65625 3.75 -1.703125 L 3.15625 -3.53125 L 2.546875 -3.53125 C 2.328125 -2.84375 1.71875 -1.0625 1.65625 -0.484375 C 1.59375 -1.046875 1 -2.8125 0.875 -3.1875 C 0.8125 -3.375 0.8125 -3.390625 0.765625 -3.53125 L 0.125 -3.53125 L 1.28125 0 L 1.953125 0 L 2.453125 -1.546875 C 2.5625 -1.9375 2.8125 -2.703125 2.84375 -3.046875 L 2.859375 -3.046875 C 2.875 -2.890625 2.921875 -2.71875 2.96875 -2.515625 L 3.140625 -1.921875 L 3.75 0 L 4.484375 0 Z M 5.640625 -3.53125 "/>
</g>
<g id="glyph-1-1">
<path d="M 3.703125 0 L 3.703125 -2.359375 C 3.703125 -2.96875 3.515625 -3.609375 2.53125 -3.609375 C 1.859375 -3.609375 1.484375 -3.21875 1.328125 -3.046875 L 1.328125 -5.515625 L 0.65625 -5.515625 L 0.65625 0 L 1.359375 0 L 1.359375 -1.9375 C 1.359375 -2.453125 1.578125 -3.078125 2.1875 -3.078125 C 3 -3.078125 3 -2.53125 3 -2.296875 L 3 0 Z M 3.703125 0 "/>
</g>
<g id="glyph-1-2">
<path d="M 3.46875 0 L 3.46875 -2.296875 C 3.46875 -3.109375 2.84375 -3.65625 2.0625 -3.65625 C 1.5625 -3.65625 1.171875 -3.546875 0.734375 -3.3125 L 0.78125 -2.734375 C 1.046875 -2.90625 1.4375 -3.140625 2.0625 -3.140625 C 2.40625 -3.140625 2.78125 -2.875 2.78125 -2.28125 L 2.78125 -1.96875 C 1.59375 -1.921875 0.4375 -1.671875 0.4375 -0.9375 C 0.4375 -0.546875 0.703125 0.078125 1.40625 0.078125 C 1.75 0.078125 2.375 0.015625 2.796875 -0.296875 L 2.796875 0 Z M 2.78125 -1.125 C 2.78125 -0.96875 2.78125 -0.765625 2.5 -0.59375 C 2.25 -0.453125 1.9375 -0.453125 1.84375 -0.453125 C 1.40625 -0.453125 1.078125 -0.640625 1.078125 -0.953125 C 1.078125 -1.453125 2.421875 -1.5 2.78125 -1.515625 Z M 2.78125 -1.125 "/>
</g>
<g id="glyph-1-3">
<path d="M 2.8125 -0.21875 L 2.6875 -0.71875 C 2.421875 -0.53125 2.140625 -0.46875 1.921875 -0.46875 C 1.578125 -0.46875 1.5 -0.796875 1.5 -1.15625 L 1.5 -3.03125 L 2.671875 -3.03125 L 2.671875 -3.53125 L 1.5 -3.53125 L 1.5 -4.546875 L 0.875 -4.546875 L 0.875 -3.53125 L 0.15625 -3.53125 L 0.15625 -3.03125 L 0.859375 -3.03125 L 0.859375 -1.015625 C 0.859375 -0.484375 1 0.078125 1.5625 0.078125 C 2.140625 0.078125 2.578125 -0.109375 2.8125 -0.21875 Z M 2.8125 -0.21875 "/>
</g>
<g id="glyph-1-4">
<path d="M 3.5 -1.734375 C 3.5 -2.109375 3.453125 -2.640625 3.15625 -3.09375 C 2.859375 -3.5 2.390625 -3.65625 2 -3.65625 C 1.03125 -3.65625 0.28125 -2.796875 0.28125 -1.796875 C 0.28125 -0.765625 1.078125 0.078125 2.125 0.078125 C 2.578125 0.078125 3.0625 -0.0625 3.46875 -0.296875 L 3.421875 -0.859375 C 2.96875 -0.546875 2.46875 -0.453125 2.125 -0.453125 C 1.4375 -0.453125 0.921875 -1.015625 0.890625 -1.734375 Z M 3.015625 -2.21875 L 0.953125 -2.21875 C 1.125 -2.859375 1.59375 -3.125 2 -3.125 C 2.34375 -3.125 2.859375 -2.953125 3.015625 -2.21875 Z M 3.015625 -2.21875 "/>
</g>
<g id="glyph-1-5">
<path d="M 1.34375 0 L 1.34375 -5.515625 L 0.671875 -5.515625 L 0.671875 0 Z M 1.34375 0 "/>
</g>
<g id="glyph-1-6">
<path d="M 3.703125 0 L 3.703125 -3.53125 L 3 -3.53125 L 3 -1.21875 C 3 -0.59375 2.46875 -0.390625 2 -0.390625 C 1.421875 -0.390625 1.359375 -0.546875 1.359375 -0.921875 L 1.359375 -3.53125 L 0.65625 -3.53125 L 0.65625 -0.859375 C 0.65625 -0.15625 0.96875 0.078125 1.53125 0.078125 C 1.859375 0.078125 2.546875 0.015625 3.03125 -0.359375 L 3.03125 0 Z M 3.703125 0 "/>
</g>
<g id="glyph-1-7">
<path d="M 3.046875 -1.03125 C 3.046875 -1.171875 3.03125 -1.484375 2.703125 -1.796875 C 2.40625 -2.046875 2.109375 -2.109375 1.734375 -2.171875 C 1.265625 -2.265625 0.90625 -2.34375 0.90625 -2.6875 C 0.90625 -3.140625 1.484375 -3.140625 1.59375 -3.140625 C 2.046875 -3.140625 2.40625 -3.046875 2.796875 -2.84375 L 2.90625 -3.40625 C 2.359375 -3.625 1.96875 -3.65625 1.671875 -3.65625 C 1.484375 -3.65625 0.28125 -3.65625 0.28125 -2.59375 C 0.28125 -2.21875 0.484375 -2.015625 0.59375 -1.921875 C 0.859375 -1.640625 1.203125 -1.578125 1.625 -1.5 C 2 -1.421875 2.421875 -1.34375 2.421875 -0.96875 C 2.421875 -0.46875 1.765625 -0.46875 1.65625 -0.46875 C 1.140625 -0.46875 0.671875 -0.640625 0.34375 -0.859375 L 0.234375 -0.265625 C 0.515625 -0.140625 1 0.078125 1.65625 0.078125 C 2.015625 0.078125 2.359375 0.03125 2.65625 -0.1875 C 2.953125 -0.40625 3.046875 -0.765625 3.046875 -1.03125 Z M 3.046875 -1.03125 "/>
</g>
<g id="glyph-1-8">
<path d="M 2.765625 -3.015625 L 2.765625 -3.609375 C 2.09375 -3.609375 1.609375 -3.28125 1.28125 -2.859375 L 1.28125 -3.59375 L 0.671875 -3.59375 L 0.671875 0 L 1.34375 0 L 1.34375 -1.6875 C 1.34375 -2.546875 2.0625 -3.015625 2.765625 -3.015625 Z M 2.765625 -3.015625 "/>
</g>
<g id="glyph-1-9">
<path d="M 3.6875 0 L 3.6875 -5.515625 L 3.015625 -5.515625 L 3.015625 -3.1875 C 2.5 -3.5625 1.984375 -3.609375 1.75 -3.609375 C 0.921875 -3.609375 0.28125 -2.78125 0.28125 -1.765625 C 0.28125 -0.75 0.921875 0.078125 1.734375 0.078125 C 2.234375 0.078125 2.6875 -0.140625 2.984375 -0.40625 L 2.984375 0 Z M 2.984375 -0.984375 C 2.796875 -0.65625 2.484375 -0.453125 2.109375 -0.453125 C 1.546875 -0.453125 0.984375 -0.828125 0.984375 -1.75 C 0.984375 -2.75 1.65625 -3.078125 2.1875 -3.078125 C 2.515625 -3.078125 2.78125 -2.953125 2.984375 -2.6875 Z M 2.984375 -0.984375 "/>
</g>
<g id="glyph-1-10">
<path d="M 3.984375 -1.734375 C 3.984375 -2.796875 3.140625 -3.65625 2.109375 -3.65625 C 1.078125 -3.65625 0.234375 -2.78125 0.234375 -1.734375 C 0.234375 -0.734375 1.078125 0.078125 2.109375 0.078125 C 3.140625 0.078125 3.984375 -0.734375 3.984375 -1.734375 Z M 3.28125 -1.828125 C 3.28125 -0.921875 2.71875 -0.46875 2.109375 -0.46875 C 1.484375 -0.46875 0.9375 -0.9375 0.9375 -1.828125 C 0.9375 -2.734375 1.515625 -3.125 2.109375 -3.125 C 2.703125 -3.125 3.28125 -2.71875 3.28125 -1.828125 Z M 3.28125 -1.828125 "/>
</g>
<g id="glyph-1-11">
<path d="M 3.890625 0 L 2.203125 -1.828125 L 3.75 -3.53125 L 3.046875 -3.53125 L 1.921875 -2.234375 L 0.765625 -3.53125 L 0.046875 -3.53125 L 1.640625 -1.828125 L 0 0 L 0.703125 0 L 1.921875 -1.5 L 3.171875 0 Z M 3.890625 0 "/>
</g>
<g id="glyph-1-12">
<path d="M 3.703125 0 L 3.703125 -2.359375 C 3.703125 -2.96875 3.515625 -3.609375 2.53125 -3.609375 C 2.078125 -3.609375 1.640625 -3.421875 1.296875 -3 L 1.296875 -3.59375 L 0.65625 -3.59375 L 0.65625 0 L 1.359375 0 L 1.359375 -1.9375 C 1.359375 -2.453125 1.578125 -3.078125 2.1875 -3.078125 C 3 -3.078125 3 -2.53125 3 -2.296875 L 3 0 Z M 3.703125 0 "/>
</g>
<g id="glyph-1-13">
<path d="M 1.34375 0 L 1.34375 -3.53125 L 0.671875 -3.53125 L 0.671875 0 Z M 1.40625 -4.453125 L 1.40625 -5.25 L 0.609375 -5.25 L 0.609375 -4.453125 Z M 1.40625 -4.453125 "/>
</g>
<g id="glyph-1-14">
<path d="M 3.390625 0 L 3.390625 -0.53125 L 2.15625 -0.53125 C 2.0625 -0.53125 1.96875 -0.53125 1.875 -0.53125 L 1.1875 -0.53125 L 3.375 -3.203125 L 3.375 -3.53125 L 0.34375 -3.53125 L 0.34375 -3.015625 L 1.515625 -3.015625 C 1.609375 -3.015625 1.703125 -3.03125 1.8125 -3.03125 L 2.421875 -3.03125 L 0.234375 -0.34375 L 0.234375 0 Z M 3.390625 0 "/>
</g>
<g id="glyph-1-15">
<path d="M 4.09375 -3.0625 L 4 -3.609375 C 3.828125 -3.609375 3.296875 -3.609375 2.6875 -3.375 L 2.671875 -3.359375 C 2.390625 -3.5625 2.109375 -3.609375 1.875 -3.609375 C 1.09375 -3.609375 0.515625 -3 0.515625 -2.3125 C 0.515625 -2.03125 0.609375 -1.75 0.796875 -1.53125 C 0.6875 -1.390625 0.5625 -1.171875 0.5625 -0.859375 C 0.5625 -0.5625 0.6875 -0.359375 0.765625 -0.265625 C 0.328125 -0.015625 0.234375 0.359375 0.234375 0.546875 C 0.234375 1.15625 1.078125 1.625 2.109375 1.625 C 3.15625 1.625 3.984375 1.15625 3.984375 0.546875 C 3.984375 -0.578125 2.578125 -0.578125 2.25 -0.578125 L 1.5 -0.578125 C 1.375 -0.578125 1.03125 -0.578125 1.03125 -0.984375 C 1.03125 -1.140625 1.09375 -1.21875 1.09375 -1.234375 C 1.375 -1.0625 1.65625 -1.015625 1.875 -1.015625 C 2.640625 -1.015625 3.234375 -1.625 3.234375 -2.3125 C 3.234375 -2.5625 3.15625 -2.796875 3.015625 -3 C 2.984375 -3.046875 2.984375 -3.0625 2.984375 -3.0625 C 2.984375 -3.109375 3.453125 -3.109375 3.5 -3.109375 C 3.5 -3.109375 3.8125 -3.109375 4.09375 -3.0625 Z M 2.609375 -2.3125 C 2.609375 -1.6875 2.21875 -1.5 1.875 -1.5 C 1.453125 -1.5 1.125 -1.78125 1.125 -2.3125 C 1.125 -2.921875 1.53125 -3.125 1.875 -3.125 C 2.296875 -3.125 2.609375 -2.84375 2.609375 -2.3125 Z M 3.375 0.5625 C 3.375 0.90625 2.78125 1.140625 2.109375 1.140625 C 1.4375 1.140625 0.84375 0.90625 0.84375 0.5625 C 0.84375 0.515625 0.84375 0.046875 1.484375 0.046875 L 2.25 0.046875 C 2.4375 0.046875 3.375 0.046875 3.375 0.5625 Z M 3.375 0.5625 "/>
</g>
<g id="glyph-1-16">
<path d="M 3.765625 -3.53125 L 3.125 -3.53125 C 2.484375 -2.015625 2.03125 -0.984375 2 -0.5 C 1.984375 -0.71875 1.84375 -1.125 1.703125 -1.5 C 1.578125 -1.8125 1.453125 -2.125 1.296875 -2.4375 L 0.796875 -3.53125 L 0.125 -3.53125 L 1.765625 0 L 1.46875 0.703125 C 1.296875 1.03125 1.1875 1.140625 0.96875 1.140625 C 0.9375 1.140625 0.640625 1.140625 0.296875 1 L 0.34375 1.5625 C 0.421875 1.578125 0.71875 1.625 0.96875 1.625 C 1.28125 1.625 1.5625 1.5 1.90625 0.734375 Z M 3.765625 -3.53125 "/>
</g>
<g id="glyph-1-17">
<path d="M 3.5 -0.28125 L 3.453125 -0.859375 C 3.0625 -0.609375 2.625 -0.46875 2.140625 -0.46875 C 1.40625 -0.46875 0.984375 -1.0625 0.984375 -1.78125 C 0.984375 -2.390625 1.296875 -3.109375 2.15625 -3.109375 C 2.703125 -3.109375 2.953125 -2.984375 3.359375 -2.734375 L 3.46875 -3.3125 C 2.984375 -3.546875 2.78125 -3.65625 2.15625 -3.65625 C 0.96875 -3.65625 0.28125 -2.6875 0.28125 -1.765625 C 0.28125 -0.796875 1.046875 0.078125 2.125 0.078125 C 2.6875 0.078125 3.171875 -0.09375 3.5 -0.28125 Z M 3.5 -0.28125 "/>
</g>
<g id="glyph-1-18">
<path d="M 4.078125 -1.78125 C 4.078125 -2.734375 3.546875 -3.609375 2.765625 -3.609375 C 2.40625 -3.609375 1.8125 -3.5 1.34375 -3.15625 L 1.34375 -3.53125 L 0.671875 -3.53125 L 0.671875 1.546875 L 1.375 1.546875 L 1.375 -0.375 C 1.796875 0.015625 2.25 0.078125 2.515625 0.078125 C 3.359375 0.078125 4.078125 -0.71875 4.078125 -1.78125 Z M 3.375 -1.78125 C 3.375 -0.984375 2.78125 -0.453125 2.15625 -0.453125 C 2.046875 -0.453125 1.84375 -0.46875 1.640625 -0.625 C 1.40625 -0.8125 1.375 -0.9375 1.375 -1.078125 L 1.375 -2.640625 C 1.546875 -2.859375 1.859375 -3.0625 2.25 -3.0625 C 2.875 -3.0625 3.375 -2.46875 3.375 -1.78125 Z M 3.375 -1.78125 "/>
</g>
<g id="glyph-2-0">
<path d="M 7.703125 -4.703125 L 8 -6.484375 C 8.015625 -6.515625 8.015625 -6.5625 8.015625 -6.609375 C 8.015625 -6.734375 7.921875 -6.734375 7.765625 -6.734375 L 2.65625 -6.734375 C 2.46875 -6.734375 2.4375 -6.734375 2.375 -6.546875 L 1.78125 -4.765625 C 1.734375 -4.640625 1.734375 -4.59375 1.734375 -4.59375 C 1.734375 -4.484375 1.859375 -4.484375 1.890625 -4.484375 C 1.921875 -4.484375 1.96875 -4.484375 2 -4.515625 C 2.015625 -4.546875 2.03125 -4.546875 2.125 -4.8125 C 2.59375 -6.21875 2.875 -6.421875 4.15625 -6.421875 L 4.484375 -6.421875 C 4.71875 -6.421875 4.71875 -6.375 4.71875 -6.3125 C 4.71875 -6.234375 4.703125 -6.15625 4.6875 -6.09375 L 3.34375 -0.75 C 3.265625 -0.40625 3.171875 -0.3125 2.296875 -0.3125 L 2.140625 -0.3125 C 1.96875 -0.3125 1.859375 -0.3125 1.859375 -0.125 C 1.859375 0 1.984375 0 2.03125 0 C 2.53125 0 3.0625 -0.03125 3.5625 -0.03125 C 4.078125 -0.03125 4.625 0 5.125 0 C 5.21875 0 5.34375 0 5.34375 -0.203125 C 5.34375 -0.3125 5.234375 -0.3125 5.09375 -0.3125 L 4.9375 -0.3125 C 4.78125 -0.3125 4.46875 -0.328125 4.4375 -0.328125 C 4.15625 -0.359375 4.109375 -0.390625 4.109375 -0.53125 C 4.109375 -0.5625 4.109375 -0.59375 4.15625 -0.71875 L 5.484375 -6.078125 C 5.5625 -6.375 5.640625 -6.390625 5.71875 -6.40625 C 5.796875 -6.421875 6.0625 -6.421875 6.234375 -6.421875 C 7.265625 -6.421875 7.5 -6.28125 7.5 -5.671875 C 7.5 -5.546875 7.5 -5.359375 7.390625 -4.765625 C 7.375 -4.65625 7.375 -4.625 7.375 -4.625 C 7.375 -4.484375 7.46875 -4.484375 7.515625 -4.484375 C 7.65625 -4.484375 7.671875 -4.515625 7.703125 -4.703125 Z M 7.703125 -4.703125 "/>
</g>
<g id="glyph-2-1">
<path d="M 5.3125 -1.421875 C 5.3125 -1.515625 5.234375 -1.515625 5.171875 -1.515625 C 5.03125 -1.515625 5.03125 -1.5 5 -1.34375 C 4.921875 -1.078125 4.65625 -0.109375 4.078125 -0.109375 C 3.859375 -0.109375 3.859375 -0.265625 3.859375 -0.390625 C 3.859375 -0.640625 3.953125 -0.90625 4.03125 -1.140625 C 4.234375 -1.671875 4.640625 -2.78125 4.640625 -3.359375 C 4.640625 -4.171875 4.09375 -4.390625 3.609375 -4.390625 C 2.9375 -4.390625 2.59375 -4.046875 2.28125 -3.75 L 3.015625 -6.640625 C 3.015625 -6.671875 3.046875 -6.78125 3.046875 -6.78125 C 3.046875 -6.859375 2.984375 -6.890625 2.90625 -6.890625 C 2.875 -6.890625 2.765625 -6.890625 2.75 -6.875 L 1.765625 -6.796875 C 1.640625 -6.78125 1.53125 -6.78125 1.53125 -6.59375 C 1.53125 -6.484375 1.625 -6.484375 1.765625 -6.484375 C 2.25 -6.484375 2.265625 -6.40625 2.265625 -6.3125 C 2.265625 -6.28125 2.234375 -6.140625 2.234375 -6.140625 L 0.765625 -0.28125 C 0.75 -0.265625 0.75 -0.15625 0.75 -0.15625 C 0.75 -0.046875 0.828125 0.109375 1.03125 0.109375 C 1.234375 0.109375 1.359375 -0.0625 1.390625 -0.171875 L 1.8125 -1.890625 C 1.875 -2.109375 1.921875 -2.3125 1.984375 -2.53125 C 2.0625 -2.890625 2.078125 -2.90625 2.25 -3.234375 C 2.453125 -3.546875 2.875 -4.171875 3.578125 -4.171875 C 4.015625 -4.171875 4.03125 -3.734375 4.03125 -3.515625 C 4.03125 -2.90625 3.59375 -1.71875 3.453125 -1.328125 C 3.328125 -0.984375 3.296875 -0.890625 3.296875 -0.6875 C 3.296875 -0.25 3.578125 0.109375 4.046875 0.109375 C 4.984375 0.109375 5.3125 -1.375 5.3125 -1.421875 Z M 5.3125 -1.421875 "/>
</g>
<g id="glyph-2-2">
<path d="M 4.65625 -1.03125 C 4.65625 -1.078125 4.578125 -1.1875 4.484375 -1.1875 C 4.453125 -1.1875 4.4375 -1.1875 4.359375 -1.078125 C 3.625 -0.15625 2.75 -0.109375 2.578125 -0.109375 C 1.921875 -0.109375 1.8125 -0.8125 1.8125 -1.203125 C 1.8125 -1.578125 1.921875 -2.03125 1.984375 -2.296875 L 2.375 -2.296875 C 2.671875 -2.296875 3.34375 -2.328125 3.8125 -2.515625 C 4.59375 -2.828125 4.59375 -3.484375 4.59375 -3.546875 C 4.59375 -4 4.234375 -4.390625 3.59375 -4.390625 C 2.546875 -4.390625 1.140625 -3.390625 1.140625 -1.625 C 1.140625 -0.734375 1.609375 0.109375 2.546875 0.109375 C 3.828125 0.109375 4.65625 -0.890625 4.65625 -1.03125 Z M 4.21875 -3.5625 C 4.21875 -2.515625 2.578125 -2.515625 2.25 -2.515625 L 2.046875 -2.515625 C 2.46875 -4.140625 3.5 -4.171875 3.59375 -4.171875 C 4 -4.171875 4.21875 -3.90625 4.21875 -3.5625 Z M 4.21875 -3.5625 "/>
</g>
<g id="glyph-2-3">
<path d="M 3.53125 -1.421875 C 3.53125 -1.515625 3.453125 -1.515625 3.390625 -1.515625 C 3.265625 -1.515625 3.265625 -1.515625 3.1875 -1.328125 C 3.015625 -0.859375 2.609375 -0.109375 2.046875 -0.109375 C 1.78125 -0.109375 1.78125 -0.359375 1.78125 -0.515625 C 1.78125 -0.59375 1.78125 -0.75 1.84375 -1.03125 L 2.578125 -3.96875 L 3.421875 -3.96875 C 3.59375 -3.96875 3.703125 -3.96875 3.703125 -4.15625 C 3.703125 -4.28125 3.625 -4.28125 3.453125 -4.28125 L 2.65625 -4.28125 L 3.03125 -5.75 C 3.078125 -5.890625 3.078125 -5.90625 3.078125 -5.96875 C 3.078125 -6.171875 2.90625 -6.21875 2.796875 -6.21875 C 2.546875 -6.21875 2.453125 -6.015625 2.421875 -5.859375 L 2.03125 -4.28125 L 1.1875 -4.28125 C 1.015625 -4.28125 0.90625 -4.28125 0.90625 -4.09375 C 0.90625 -3.96875 1 -3.96875 1.15625 -3.96875 L 1.953125 -3.96875 L 1.234375 -1.125 C 1.21875 -1.078125 1.1875 -0.921875 1.1875 -0.78125 C 1.1875 -0.28125 1.515625 0.109375 2.03125 0.109375 C 3.03125 0.109375 3.53125 -1.375 3.53125 -1.421875 Z M 3.53125 -1.421875 "/>
</g>
<g id="glyph-2-4">
<path d="M 4.84375 -1.421875 C 4.84375 -1.515625 4.765625 -1.515625 4.703125 -1.515625 C 4.578125 -1.515625 4.578125 -1.515625 4.515625 -1.34375 C 4.25 -0.5 3.75 -0.109375 3.34375 -0.109375 C 3.140625 -0.109375 2.875 -0.234375 2.875 -0.75 C 2.875 -0.984375 2.984375 -1.40625 3.0625 -1.75 L 3.40625 -3.109375 C 3.53125 -3.625 3.8125 -4.171875 4.265625 -4.171875 C 4.296875 -4.171875 4.546875 -4.171875 4.703125 -4.03125 C 4.3125 -3.9375 4.3125 -3.5625 4.3125 -3.5625 C 4.3125 -3.421875 4.40625 -3.234375 4.65625 -3.234375 C 4.84375 -3.234375 5.140625 -3.375 5.140625 -3.765625 C 5.140625 -4.265625 4.578125 -4.390625 4.28125 -4.390625 C 3.734375 -4.390625 3.40625 -3.90625 3.3125 -3.71875 C 3.09375 -4.3125 2.609375 -4.390625 2.359375 -4.390625 C 1.359375 -4.390625 0.828125 -3.09375 0.828125 -2.859375 C 0.828125 -2.765625 0.921875 -2.765625 0.96875 -2.765625 C 1.109375 -2.765625 1.109375 -2.765625 1.15625 -2.9375 C 1.421875 -3.78125 1.9375 -4.171875 2.328125 -4.171875 C 2.625 -4.171875 2.8125 -3.9375 2.8125 -3.546875 C 2.8125 -3.3125 2.6875 -2.828125 2.609375 -2.453125 L 2.375 -1.546875 C 2.21875 -0.90625 2 -0.109375 1.40625 -0.109375 C 1.375 -0.109375 1.140625 -0.109375 0.96875 -0.25 C 1.265625 -0.328125 1.359375 -0.578125 1.359375 -0.71875 C 1.359375 -0.984375 1.15625 -1.046875 1.03125 -1.046875 C 0.78125 -1.046875 0.53125 -0.828125 0.53125 -0.5 C 0.53125 -0.125 0.9375 0.109375 1.40625 0.109375 C 1.875 0.109375 2.203125 -0.265625 2.375 -0.5625 C 2.578125 0 3.0625 0.109375 3.3125 0.109375 C 4.34375 0.109375 4.84375 -1.21875 4.84375 -1.421875 Z M 4.84375 -1.421875 "/>
</g>
<g id="glyph-2-5">
<path d="M 3.296875 -1.984375 C 3.3125 -2.03125 3.375 -2.25 3.375 -2.296875 C 3.375 -2.421875 3.28125 -2.421875 3.125 -2.421875 L 1.1875 -2.421875 C 0.984375 -2.421875 0.96875 -2.421875 0.921875 -2.28125 C 0.90625 -2.21875 0.859375 -2.03125 0.859375 -1.984375 C 0.859375 -1.859375 0.9375 -1.859375 1.109375 -1.859375 L 3.015625 -1.859375 C 3.203125 -1.859375 3.265625 -1.859375 3.296875 -1.984375 Z M 3.296875 -1.984375 "/>
</g>
<g id="glyph-2-6">
<path d="M 4.484375 -6.34375 C 4.484375 -6.78125 4.078125 -7 3.671875 -7 C 2.703125 -7 2.453125 -5.71875 2.390625 -5.375 L 2.171875 -4.28125 L 1.515625 -4.28125 C 1.359375 -4.28125 1.25 -4.28125 1.25 -4.078125 C 1.25 -3.96875 1.34375 -3.96875 1.5 -3.96875 L 2.109375 -3.96875 L 1.390625 -0.265625 C 1.265625 0.34375 1.171875 0.75 1.109375 0.96875 C 1.03125 1.296875 0.90625 1.8125 0.546875 1.8125 C 0.453125 1.8125 0.265625 1.78125 0.15625 1.640625 C 0.453125 1.59375 0.59375 1.34375 0.59375 1.15625 C 0.59375 0.9375 0.40625 0.828125 0.25 0.828125 C 0 0.828125 -0.25 1.03125 -0.25 1.375 C -0.25 1.828125 0.171875 2.03125 0.546875 2.03125 C 1.578125 2.03125 1.984375 -0.046875 2.0625 -0.40625 L 2.75 -3.96875 L 3.5625 -3.96875 C 3.734375 -3.96875 3.828125 -3.96875 3.828125 -4.15625 C 3.828125 -4.28125 3.75 -4.28125 3.59375 -4.28125 L 2.8125 -4.28125 L 3.125 -5.890625 C 3.203125 -6.265625 3.3125 -6.78125 3.671875 -6.78125 C 3.75 -6.78125 3.96875 -6.765625 4.09375 -6.609375 C 3.796875 -6.5625 3.65625 -6.3125 3.65625 -6.125 C 3.65625 -5.90625 3.828125 -5.796875 4 -5.796875 C 4.25 -5.796875 4.484375 -6 4.484375 -6.34375 Z M 4.484375 -6.34375 "/>
</g>
<g id="glyph-2-7">
<path d="M 5.21875 -1.421875 C 5.21875 -1.515625 5.140625 -1.515625 5.0625 -1.515625 C 4.953125 -1.515625 4.9375 -1.515625 4.875 -1.296875 C 4.734375 -0.734375 4.546875 -0.109375 4.21875 -0.109375 C 3.953125 -0.109375 3.953125 -0.375 3.953125 -0.515625 C 3.953125 -0.59375 3.953125 -0.75 4.03125 -1.03125 L 4.703125 -3.734375 C 4.734375 -3.859375 4.734375 -3.890625 4.734375 -3.9375 C 4.734375 -4.140625 4.578125 -4.1875 4.46875 -4.1875 C 4.15625 -4.1875 4.078125 -3.859375 4.078125 -3.8125 C 3.890625 -4.234375 3.5625 -4.390625 3.25 -4.390625 C 2.140625 -4.390625 0.96875 -2.875 0.96875 -1.4375 C 0.96875 -0.59375 1.4375 0.109375 2.171875 0.109375 C 2.53125 0.109375 2.96875 -0.09375 3.375 -0.59375 C 3.484375 -0.09375 3.84375 0.109375 4.1875 0.109375 C 4.5625 0.109375 4.765625 -0.140625 4.921875 -0.453125 C 5.09375 -0.828125 5.21875 -1.421875 5.21875 -1.421875 Z M 3.4375 -1.234375 C 3.359375 -0.921875 2.75 -0.109375 2.203125 -0.109375 C 1.734375 -0.109375 1.65625 -0.703125 1.65625 -1 C 1.65625 -1.484375 1.953125 -2.65625 2.140625 -3.078125 C 2.390625 -3.671875 2.84375 -4.171875 3.25 -4.171875 C 3.6875 -4.171875 3.9375 -3.65625 3.9375 -3.234375 C 3.9375 -3.234375 3.921875 -3.171875 3.90625 -3.109375 Z M 3.4375 -1.234375 "/>
</g>
<g id="glyph-2-8">
<path d="M 4.90625 -3.734375 C 4.90625 -4.078125 4.78125 -4.390625 4.484375 -4.390625 C 4.265625 -4.390625 4.015625 -4.15625 4.015625 -3.9375 C 4.015625 -3.8125 4.078125 -3.734375 4.140625 -3.671875 C 4.375 -3.40625 4.40625 -3.09375 4.40625 -2.875 C 4.40625 -2.609375 3.9375 -0.109375 2.796875 -0.109375 C 2.265625 -0.109375 2.15625 -0.609375 2.15625 -0.9375 C 2.15625 -1.515625 2.46875 -2.375 2.75 -3.09375 C 2.796875 -3.25 2.859375 -3.40625 2.859375 -3.59375 C 2.859375 -4.078125 2.53125 -4.390625 2.09375 -4.390625 C 1.171875 -4.390625 0.828125 -2.921875 0.828125 -2.859375 C 0.828125 -2.765625 0.921875 -2.765625 0.96875 -2.765625 C 1.109375 -2.765625 1.109375 -2.78125 1.15625 -2.921875 C 1.234375 -3.234375 1.5 -4.171875 2.078125 -4.171875 C 2.1875 -4.171875 2.296875 -4.140625 2.296875 -3.890625 C 2.296875 -3.640625 2.203125 -3.375 2.0625 -2.984375 C 1.75 -2.140625 1.546875 -1.546875 1.546875 -1.078125 C 1.546875 -0.171875 2.1875 0.109375 2.765625 0.109375 C 4.4375 0.109375 4.90625 -3.484375 4.90625 -3.734375 Z M 4.90625 -3.734375 "/>
</g>
<g id="glyph-2-9">
<path d="M 5.0625 -2.765625 C 5.0625 -3.703125 4.46875 -4.390625 3.609375 -4.390625 C 2.375 -4.390625 1.09375 -2.984375 1.09375 -1.53125 C 1.09375 -0.5 1.71875 0.109375 2.546875 0.109375 C 3.78125 0.109375 5.0625 -1.296875 5.0625 -2.765625 Z M 4.359375 -3.15625 C 4.359375 -2.71875 4.140625 -1.703125 3.828125 -1.109375 C 3.53125 -0.5625 3.03125 -0.109375 2.546875 -0.109375 C 2.15625 -0.109375 1.78125 -0.421875 1.78125 -1.140625 C 1.78125 -1.625 2.046875 -2.734375 2.359375 -3.265625 C 2.734375 -3.875 3.203125 -4.171875 3.59375 -4.171875 C 4.078125 -4.171875 4.359375 -3.734375 4.359375 -3.15625 Z M 4.359375 -3.15625 "/>
</g>
<g id="glyph-2-10">
<path d="M 4.859375 -3.765625 C 4.859375 -4.28125 4.21875 -4.390625 3.890625 -4.390625 C 3.203125 -4.390625 2.84375 -3.890625 2.6875 -3.671875 C 2.578125 -4.203125 2.1875 -4.390625 1.859375 -4.390625 C 1.5 -4.390625 1.296875 -4.15625 1.140625 -3.859375 C 0.953125 -3.46875 0.828125 -2.859375 0.828125 -2.859375 C 0.828125 -2.765625 0.921875 -2.765625 0.96875 -2.765625 C 1.109375 -2.765625 1.109375 -2.765625 1.15625 -2.984375 C 1.34375 -3.6875 1.53125 -4.171875 1.84375 -4.171875 C 2.09375 -4.171875 2.09375 -3.890625 2.09375 -3.78125 C 2.09375 -3.625 2.0625 -3.421875 2.03125 -3.265625 L 1.28125 -0.28125 C 1.265625 -0.234375 1.25 -0.171875 1.25 -0.15625 C 1.25 -0.046875 1.328125 0.109375 1.53125 0.109375 C 1.828125 0.109375 1.890625 -0.171875 1.921875 -0.265625 L 2.5625 -2.859375 C 2.578125 -2.890625 3.015625 -4.171875 3.875 -4.171875 C 3.921875 -4.171875 4.203125 -4.171875 4.40625 -4.03125 C 4.046875 -3.921875 4.03125 -3.609375 4.03125 -3.5625 C 4.03125 -3.421875 4.109375 -3.234375 4.375 -3.234375 C 4.546875 -3.234375 4.859375 -3.375 4.859375 -3.765625 Z M 4.859375 -3.765625 "/>
</g>
<g id="glyph-2-11">
<path d="M 3.296875 -1.421875 C 3.296875 -1.515625 3.203125 -1.515625 3.140625 -1.515625 C 3.015625 -1.515625 3.015625 -1.5 2.96875 -1.34375 C 2.890625 -1.0625 2.625 -0.109375 2.046875 -0.109375 C 1.96875 -0.109375 1.828125 -0.125 1.828125 -0.390625 C 1.828125 -0.640625 1.953125 -0.96875 2.09375 -1.34375 L 2.71875 -3.046875 C 2.828125 -3.328125 2.84375 -3.40625 2.84375 -3.59375 C 2.84375 -4.140625 2.46875 -4.390625 2.09375 -4.390625 C 1.15625 -4.390625 0.828125 -2.90625 0.828125 -2.859375 C 0.828125 -2.765625 0.921875 -2.765625 0.96875 -2.765625 C 1.109375 -2.765625 1.109375 -2.78125 1.15625 -2.921875 C 1.25 -3.25 1.5 -4.171875 2.078125 -4.171875 C 2.1875 -4.171875 2.296875 -4.125 2.296875 -3.890625 C 2.296875 -3.65625 2.1875 -3.375 2.109375 -3.1875 L 1.8125 -2.359375 L 1.453125 -1.375 C 1.3125 -1 1.265625 -0.890625 1.265625 -0.6875 C 1.265625 -0.296875 1.515625 0.109375 2.03125 0.109375 C 2.96875 0.109375 3.296875 -1.375 3.296875 -1.421875 Z M 3.5625 -6.078125 C 3.5625 -6.28125 3.40625 -6.5 3.109375 -6.5 C 2.796875 -6.5 2.46875 -6.1875 2.46875 -5.875 C 2.46875 -5.65625 2.640625 -5.453125 2.921875 -5.453125 C 3.234375 -5.453125 3.5625 -5.75 3.5625 -6.078125 Z M 3.5625 -6.078125 "/>
</g>
<g id="glyph-2-12">
<path d="M 5.828125 -1.421875 C 5.828125 -1.515625 5.75 -1.515625 5.671875 -1.515625 C 5.546875 -1.515625 5.546875 -1.5 5.5 -1.34375 C 5.421875 -1.078125 5.15625 -0.109375 4.578125 -0.109375 C 4.375 -0.109375 4.359375 -0.265625 4.359375 -0.390625 C 4.359375 -0.640625 4.46875 -0.90625 4.546875 -1.140625 C 4.734375 -1.671875 5.140625 -2.78125 5.140625 -3.359375 C 5.140625 -4.171875 4.59375 -4.390625 4.109375 -4.390625 C 3.296875 -4.390625 2.828125 -3.796875 2.6875 -3.609375 C 2.625 -4.09375 2.28125 -4.390625 1.859375 -4.390625 C 1.5 -4.390625 1.296875 -4.15625 1.140625 -3.859375 C 0.953125 -3.46875 0.828125 -2.859375 0.828125 -2.859375 C 0.828125 -2.765625 0.921875 -2.765625 0.96875 -2.765625 C 1.109375 -2.765625 1.109375 -2.765625 1.15625 -2.984375 C 1.34375 -3.6875 1.53125 -4.171875 1.84375 -4.171875 C 2.09375 -4.171875 2.09375 -3.890625 2.09375 -3.78125 C 2.09375 -3.625 2.0625 -3.421875 2.03125 -3.265625 L 1.28125 -0.28125 C 1.265625 -0.234375 1.25 -0.171875 1.25 -0.15625 C 1.25 -0.046875 1.328125 0.109375 1.53125 0.109375 C 1.65625 0.109375 1.8125 0.046875 1.890625 -0.15625 L 2.28125 -1.734375 C 2.328125 -1.953125 2.390625 -2.171875 2.4375 -2.390625 C 2.578125 -2.890625 2.578125 -2.90625 2.75 -3.1875 C 2.875 -3.421875 3.328125 -4.171875 4.078125 -4.171875 C 4.515625 -4.171875 4.546875 -3.734375 4.546875 -3.515625 C 4.546875 -2.90625 4.109375 -1.71875 3.96875 -1.328125 C 3.828125 -0.984375 3.8125 -0.890625 3.8125 -0.6875 C 3.8125 -0.25 4.078125 0.109375 4.5625 0.109375 C 5.484375 0.109375 5.828125 -1.375 5.828125 -1.421875 Z M 5.828125 -1.421875 "/>
</g>
<g id="glyph-2-13">
<path d="M 3.71875 0.625 L 4.796875 -3.734375 C 4.84375 -3.875 4.84375 -3.890625 4.84375 -3.9375 C 4.84375 -4.140625 4.671875 -4.1875 4.578125 -4.1875 C 4.453125 -4.1875 4.21875 -4.109375 4.1875 -3.828125 C 4.046875 -4.109375 3.78125 -4.390625 3.34375 -4.390625 C 2.234375 -4.390625 1.09375 -2.921875 1.09375 -1.515625 C 1.09375 -0.671875 1.5625 0 2.3125 0 C 2.8125 0 3.234375 -0.40625 3.359375 -0.53125 L 3.15625 0.3125 C 3.03125 0.8125 2.96875 1.015625 2.6875 1.34375 C 2.296875 1.8125 1.890625 1.8125 1.75 1.8125 C 1.625 1.8125 1.3125 1.8125 1.046875 1.703125 C 1.25 1.625 1.359375 1.421875 1.359375 1.25 C 1.359375 1.125 1.265625 0.9375 1.015625 0.9375 C 0.828125 0.9375 0.53125 1.078125 0.53125 1.453125 C 0.53125 1.859375 0.890625 2.03125 1.734375 2.03125 C 2.765625 2.03125 3.53125 1.375 3.71875 0.625 Z M 3.5625 -1.3125 C 3.484375 -1 2.875 -0.21875 2.328125 -0.21875 C 1.78125 -0.21875 1.765625 -0.96875 1.765625 -1.078125 C 1.765625 -1.5625 2.0625 -2.71875 2.28125 -3.1875 C 2.53125 -3.734375 2.96875 -4.171875 3.34375 -4.171875 C 3.9375 -4.171875 4.03125 -3.34375 4.03125 -3.265625 L 4 -3.125 Z M 3.5625 -1.3125 "/>
</g>
<g id="glyph-2-14">
<path d="M 5.3125 -1.421875 C 5.3125 -1.515625 5.234375 -1.515625 5.171875 -1.515625 C 5.046875 -1.515625 5.03125 -1.515625 4.984375 -1.296875 C 4.84375 -0.734375 4.65625 -0.109375 4.3125 -0.109375 C 4.046875 -0.109375 4.046875 -0.375 4.046875 -0.515625 C 4.046875 -0.59375 4.046875 -0.734375 4.109375 -0.96875 L 5.53125 -6.640625 C 5.546875 -6.671875 5.5625 -6.78125 5.5625 -6.78125 C 5.5625 -6.859375 5.5 -6.890625 5.421875 -6.890625 C 5.390625 -6.890625 5.296875 -6.890625 5.265625 -6.875 L 4.28125 -6.796875 C 4.15625 -6.78125 4.046875 -6.78125 4.046875 -6.59375 C 4.046875 -6.484375 4.15625 -6.484375 4.296875 -6.484375 C 4.765625 -6.484375 4.796875 -6.40625 4.796875 -6.3125 C 4.796875 -6.28125 4.765625 -6.140625 4.765625 -6.140625 L 4.1875 -3.8125 C 4.03125 -4.125 3.765625 -4.390625 3.34375 -4.390625 C 2.25 -4.390625 1.078125 -2.875 1.078125 -1.4375 C 1.078125 -0.59375 1.53125 0.109375 2.28125 0.109375 C 2.640625 0.109375 3.078125 -0.09375 3.46875 -0.59375 C 3.578125 -0.09375 3.9375 0.109375 4.296875 0.109375 C 4.65625 0.109375 4.875 -0.140625 5.015625 -0.453125 C 5.203125 -0.828125 5.3125 -1.421875 5.3125 -1.421875 Z M 3.53125 -1.21875 C 3.453125 -0.90625 2.84375 -0.109375 2.296875 -0.109375 C 1.828125 -0.109375 1.75 -0.703125 1.75 -1 C 1.75 -1.484375 2.0625 -2.65625 2.234375 -3.078125 C 2.484375 -3.671875 2.9375 -4.171875 3.34375 -4.171875 C 3.421875 -4.171875 3.65625 -4.15625 3.828125 -3.890625 C 3.9375 -3.734375 4.03125 -3.4375 4.03125 -3.25 C 4.03125 -3.21875 4.03125 -3.1875 4 -3.125 Z M 3.53125 -1.21875 "/>
</g>
<g id="glyph-2-15">
<path d="M 4.5625 -2.84375 C 4.5625 -3.90625 3.96875 -4.390625 3.375 -4.390625 C 2.984375 -4.390625 2.65625 -4.1875 2.3125 -3.859375 L 3.015625 -6.640625 C 3.015625 -6.671875 3.046875 -6.78125 3.046875 -6.78125 C 3.046875 -6.859375 2.984375 -6.890625 2.90625 -6.890625 C 2.875 -6.890625 2.765625 -6.890625 2.75 -6.875 L 1.765625 -6.796875 C 1.640625 -6.78125 1.53125 -6.78125 1.53125 -6.59375 C 1.53125 -6.484375 1.625 -6.484375 1.765625 -6.484375 C 2.25 -6.484375 2.265625 -6.40625 2.265625 -6.3125 C 2.265625 -6.28125 2.234375 -6.140625 2.234375 -6.140625 L 1.25 -2.21875 C 1.25 -2.1875 1.140625 -1.78125 1.140625 -1.40625 C 1.140625 -0.5625 1.5625 0.109375 2.28125 0.109375 C 3.40625 0.109375 4.5625 -1.375 4.5625 -2.84375 Z M 3.34375 -1.046875 C 3.21875 -0.8125 2.796875 -0.109375 2.28125 -0.109375 C 2.03125 -0.109375 1.703125 -0.3125 1.703125 -1.0625 C 1.703125 -1.5 1.796875 -1.84375 2.09375 -2.984375 C 2.15625 -3.21875 2.15625 -3.234375 2.3125 -3.4375 C 2.59375 -3.828125 2.96875 -4.171875 3.34375 -4.171875 C 3.796875 -4.171875 3.890625 -3.609375 3.890625 -3.296875 C 3.890625 -2.875 3.625 -1.6875 3.34375 -1.046875 Z M 3.34375 -1.046875 "/>
</g>
<g id="glyph-2-16">
<path d="M 4.65625 -1.03125 C 4.65625 -1.078125 4.578125 -1.1875 4.484375 -1.1875 C 4.453125 -1.1875 4.4375 -1.1875 4.359375 -1.078125 C 3.625 -0.15625 2.75 -0.109375 2.578125 -0.109375 C 2.03125 -0.109375 1.78125 -0.5625 1.78125 -1.140625 C 1.78125 -1.65625 2.0625 -2.703125 2.3125 -3.1875 C 2.671875 -3.828125 3.171875 -4.171875 3.625 -4.171875 C 3.734375 -4.171875 4.171875 -4.15625 4.328125 -3.75 C 3.828125 -3.6875 3.828125 -3.265625 3.828125 -3.265625 C 3.828125 -3.09375 3.9375 -2.9375 4.15625 -2.9375 C 4.4375 -2.9375 4.671875 -3.15625 4.671875 -3.53125 C 4.671875 -4.03125 4.25 -4.390625 3.609375 -4.390625 C 2.375 -4.390625 1.09375 -2.984375 1.09375 -1.53125 C 1.09375 -0.546875 1.671875 0.109375 2.546875 0.109375 C 3.828125 0.109375 4.65625 -0.890625 4.65625 -1.03125 Z M 4.65625 -1.03125 "/>
</g>
<g id="glyph-2-17">
<path d="M 4.8125 -1.421875 C 4.8125 -1.515625 4.734375 -1.515625 4.65625 -1.515625 C 4.546875 -1.515625 4.53125 -1.515625 4.46875 -1.296875 C 4.34375 -0.78125 4.15625 -0.109375 3.71875 -0.109375 C 3.453125 -0.109375 3.421875 -0.34375 3.421875 -0.53125 C 3.421875 -0.765625 3.5 -1.046875 3.515625 -1.09375 C 3.5625 -1.296875 3.5625 -1.3125 3.5625 -1.4375 C 3.5625 -2.109375 2.859375 -2.390625 2.234375 -2.46875 C 2.46875 -2.609375 2.671875 -2.828125 2.9375 -3.125 C 3.453125 -3.71875 3.84375 -4.171875 4.34375 -4.171875 C 4.53125 -4.171875 4.609375 -4.046875 4.609375 -4.046875 C 4.1875 -3.984375 4.140625 -3.640625 4.140625 -3.5625 C 4.140625 -3.421875 4.234375 -3.234375 4.484375 -3.234375 C 4.703125 -3.234375 4.984375 -3.421875 4.984375 -3.796875 C 4.984375 -4.046875 4.8125 -4.390625 4.359375 -4.390625 C 3.828125 -4.390625 3.40625 -3.96875 3.078125 -3.578125 C 2.5 -2.921875 2.34375 -2.765625 2 -2.59375 L 3.015625 -6.640625 C 3.015625 -6.671875 3.046875 -6.78125 3.046875 -6.78125 C 3.046875 -6.859375 2.984375 -6.890625 2.90625 -6.890625 C 2.875 -6.890625 2.765625 -6.890625 2.75 -6.875 L 1.765625 -6.796875 C 1.640625 -6.78125 1.53125 -6.78125 1.53125 -6.59375 C 1.53125 -6.484375 1.625 -6.484375 1.765625 -6.484375 C 2.25 -6.484375 2.265625 -6.40625 2.265625 -6.3125 C 2.265625 -6.28125 2.234375 -6.140625 2.234375 -6.140625 L 0.765625 -0.28125 C 0.75 -0.265625 0.75 -0.15625 0.75 -0.15625 C 0.75 -0.046875 0.828125 0.109375 1.03125 0.109375 C 1.328125 0.109375 1.390625 -0.171875 1.40625 -0.265625 L 1.921875 -2.28125 C 2.28125 -2.21875 2.921875 -2.015625 2.921875 -1.4375 C 2.921875 -1.375 2.921875 -1.328125 2.890625 -1.1875 C 2.859375 -1.03125 2.859375 -0.953125 2.859375 -0.859375 C 2.859375 -0.140625 3.3125 0.109375 3.6875 0.109375 C 4.125 0.109375 4.34375 -0.21875 4.453125 -0.40625 C 4.671875 -0.78125 4.8125 -1.390625 4.8125 -1.421875 Z M 4.8125 -1.421875 "/>
</g>
<g id="glyph-2-18">
<path d="M 2.78125 -1.421875 C 2.78125 -1.515625 2.703125 -1.515625 2.640625 -1.515625 C 2.578125 -1.515625 2.53125 -1.515625 2.5 -1.46875 L 2.421875 -1.21875 C 2.25 -0.53125 2.0625 -0.109375 1.78125 -0.109375 C 1.53125 -0.109375 1.53125 -0.375 1.53125 -0.515625 C 1.53125 -0.59375 1.53125 -0.734375 1.59375 -0.96875 L 3.015625 -6.640625 C 3.015625 -6.671875 3.046875 -6.78125 3.046875 -6.78125 C 3.046875 -6.859375 2.984375 -6.890625 2.90625 -6.890625 C 2.875 -6.890625 2.765625 -6.890625 2.75 -6.875 L 1.765625 -6.796875 C 1.640625 -6.78125 1.53125 -6.78125 1.53125 -6.59375 C 1.53125 -6.484375 1.625 -6.484375 1.765625 -6.484375 C 2.25 -6.484375 2.265625 -6.40625 2.265625 -6.3125 C 2.265625 -6.28125 2.234375 -6.140625 2.234375 -6.140625 L 1 -1.171875 C 0.984375 -1.140625 0.9375 -0.9375 0.9375 -0.78125 C 0.9375 -0.265625 1.296875 0.109375 1.765625 0.109375 C 2.140625 0.109375 2.34375 -0.15625 2.46875 -0.40625 C 2.640625 -0.75 2.78125 -1.390625 2.78125 -1.421875 Z M 2.78125 -1.421875 "/>
</g>
<g id="glyph-2-19">
<path d="M 5.0625 -2.84375 C 5.0625 -3.90625 4.46875 -4.390625 3.875 -4.390625 C 3.390625 -4.390625 2.96875 -4.03125 2.671875 -3.703125 C 2.546875 -4.265625 2.109375 -4.390625 1.859375 -4.390625 C 1.5 -4.390625 1.296875 -4.15625 1.140625 -3.859375 C 0.953125 -3.46875 0.828125 -2.859375 0.828125 -2.859375 C 0.828125 -2.765625 0.921875 -2.765625 0.96875 -2.765625 C 1.109375 -2.765625 1.109375 -2.765625 1.15625 -2.984375 C 1.34375 -3.6875 1.53125 -4.171875 1.84375 -4.171875 C 2.09375 -4.171875 2.09375 -3.890625 2.09375 -3.78125 C 2.09375 -3.71875 2.09375 -3.5625 2.03125 -3.28125 L 0.890625 1.265625 C 0.8125 1.578125 0.734375 1.609375 0.34375 1.625 C 0.265625 1.625 0.140625 1.625 0.140625 1.8125 C 0.140625 1.875 0.1875 1.921875 0.265625 1.921875 C 0.53125 1.921875 0.8125 1.890625 1.09375 1.890625 C 1.40625 1.890625 1.75 1.921875 2.0625 1.921875 C 2.109375 1.921875 2.25 1.921875 2.25 1.734375 C 2.25 1.625 2.140625 1.625 2 1.625 C 1.5 1.625 1.5 1.5625 1.5 1.453125 C 1.5 1.40625 1.5625 1.140625 1.609375 0.984375 L 1.96875 -0.46875 C 2.03125 -0.296875 2.28125 0.109375 2.796875 0.109375 C 3.890625 0.109375 5.0625 -1.359375 5.0625 -2.84375 Z M 3.84375 -1.046875 C 3.734375 -0.8125 3.296875 -0.109375 2.796875 -0.109375 C 2.21875 -0.109375 2.109375 -0.953125 2.109375 -1.03125 C 2.109375 -1.0625 2.125 -1.09375 2.140625 -1.171875 L 2.609375 -3.046875 C 2.6875 -3.390625 3.3125 -4.171875 3.859375 -4.171875 C 4.296875 -4.171875 4.40625 -3.609375 4.40625 -3.296875 C 4.40625 -2.875 4.140625 -1.6875 3.84375 -1.046875 Z M 3.84375 -1.046875 "/>
</g>
<g id="glyph-3-0">
<path d="M 5.828125 -1.953125 C 5.828125 -2.0625 5.703125 -2.0625 5.671875 -2.0625 C 5.5625 -2.0625 5.5625 -2.046875 5.484375 -1.890625 C 5 -0.78125 4.703125 -0.265625 3.40625 -0.265625 L 2.28125 -0.265625 C 2.21875 -0.265625 2.125 -0.265625 2.0625 -0.28125 C 2.0625 -0.359375 2.0625 -0.390625 2.09375 -0.5 L 2.640625 -2.6875 L 3.40625 -2.6875 C 3.984375 -2.6875 4.03125 -2.546875 4.03125 -2.34375 C 4.03125 -2.203125 3.984375 -2 3.984375 -1.96875 C 3.953125 -1.921875 3.953125 -1.890625 3.953125 -1.859375 C 3.953125 -1.75 4.0625 -1.75 4.109375 -1.75 C 4.21875 -1.75 4.234375 -1.796875 4.265625 -1.921875 L 4.6875 -3.609375 C 4.71875 -3.71875 4.71875 -3.734375 4.71875 -3.75 C 4.71875 -3.875 4.625 -3.875 4.578125 -3.875 C 4.453125 -3.875 4.4375 -3.84375 4.390625 -3.671875 C 4.234375 -3.0625 4.046875 -2.9375 3.421875 -2.9375 L 2.703125 -2.9375 L 3.1875 -4.859375 C 3.25 -5.140625 3.3125 -5.140625 3.5625 -5.140625 L 4.671875 -5.140625 C 5.5625 -5.140625 5.796875 -4.9375 5.796875 -4.3125 C 5.796875 -4.15625 5.78125 -4 5.75 -3.84375 C 5.75 -3.8125 5.734375 -3.765625 5.734375 -3.734375 C 5.734375 -3.609375 5.84375 -3.609375 5.890625 -3.609375 C 6.03125 -3.609375 6.03125 -3.65625 6.046875 -3.796875 L 6.21875 -5.1875 L 6.21875 -5.296875 C 6.21875 -5.40625 6.109375 -5.40625 6 -5.40625 L 2.109375 -5.40625 C 1.984375 -5.40625 1.890625 -5.40625 1.890625 -5.265625 C 1.890625 -5.140625 1.96875 -5.140625 2.109375 -5.140625 C 2.359375 -5.140625 2.546875 -5.140625 2.546875 -5.015625 C 2.546875 -4.96875 2.53125 -4.90625 2.515625 -4.84375 L 1.46875 -0.609375 C 1.390625 -0.328125 1.34375 -0.265625 0.859375 -0.265625 C 0.6875 -0.265625 0.59375 -0.265625 0.59375 -0.109375 C 0.59375 0 0.6875 0 0.8125 0 L 4.8125 0 C 4.984375 0 5 -0.015625 5.0625 -0.140625 L 5.78125 -1.828125 C 5.796875 -1.859375 5.828125 -1.921875 5.828125 -1.953125 Z M 5.828125 -1.953125 "/>
</g>
<g id="glyph-3-1">
<path d="M 4.5 -1.140625 C 4.5 -1.234375 4.375 -1.234375 4.34375 -1.234375 C 4.203125 -1.234375 4.203125 -1.21875 4.15625 -1.015625 C 4.015625 -0.40625 3.84375 -0.140625 3.625 -0.140625 C 3.40625 -0.140625 3.40625 -0.390625 3.40625 -0.5 C 3.40625 -0.546875 3.40625 -0.625 3.421875 -0.71875 L 3.984375 -2.96875 C 4 -3 4.015625 -3.09375 4.015625 -3.140625 C 4.015625 -3.265625 3.90625 -3.359375 3.78125 -3.359375 C 3.671875 -3.359375 3.484375 -3.28125 3.453125 -3.0625 C 3.28125 -3.34375 3.046875 -3.5 2.71875 -3.5 C 1.78125 -3.5 0.8125 -2.328125 0.8125 -1.1875 C 0.8125 -0.421875 1.265625 0.078125 1.875 0.078125 C 2.34375 0.078125 2.734375 -0.265625 2.890625 -0.46875 C 2.96875 -0.171875 3.234375 0.078125 3.609375 0.078125 C 3.890625 0.078125 4.09375 -0.09375 4.21875 -0.34375 C 4.390625 -0.65625 4.5 -1.140625 4.5 -1.140625 Z M 2.953125 -1.0625 C 2.890625 -0.78125 2.359375 -0.140625 1.890625 -0.140625 C 1.515625 -0.140625 1.40625 -0.546875 1.40625 -0.859375 C 1.40625 -1.234375 1.625 -2.171875 1.828125 -2.546875 C 2.140625 -3.125 2.5 -3.28125 2.71875 -3.28125 C 3.21875 -3.28125 3.3125 -2.609375 3.3125 -2.53125 L 3.28125 -2.421875 Z M 2.953125 -1.0625 "/>
</g>
<g id="glyph-3-2">
<path d="M 4 -0.796875 C 4 -0.859375 3.890625 -0.96875 3.828125 -0.96875 C 3.78125 -0.96875 3.78125 -0.953125 3.703125 -0.859375 C 3.28125 -0.34375 2.640625 -0.140625 2.21875 -0.140625 C 1.796875 -0.140625 1.515625 -0.453125 1.515625 -0.984375 C 1.515625 -1.375 1.6875 -2.09375 1.890625 -2.453125 C 2.265625 -3.125 2.75 -3.28125 3.015625 -3.28125 C 3.125 -3.28125 3.453125 -3.265625 3.609375 -3 C 3.265625 -2.921875 3.265625 -2.625 3.265625 -2.609375 C 3.265625 -2.484375 3.34375 -2.34375 3.546875 -2.34375 C 3.75 -2.34375 3.953125 -2.5 3.953125 -2.828125 C 3.953125 -3.21875 3.578125 -3.5 3.015625 -3.5 C 1.984375 -3.5 0.921875 -2.4375 0.921875 -1.265625 C 0.921875 -0.453125 1.4375 0.078125 2.203125 0.078125 C 3.34375 0.078125 4 -0.6875 4 -0.796875 Z M 4 -0.796875 "/>
</g>
<g id="glyph-3-3">
<path d="M 4.578125 -1.140625 C 4.578125 -1.234375 4.46875 -1.234375 4.421875 -1.234375 C 4.296875 -1.234375 4.28125 -1.203125 4.25 -1.078125 C 4.109375 -0.5625 3.84375 -0.140625 3.5 -0.140625 C 3.34375 -0.140625 3.328125 -0.25 3.328125 -0.390625 C 3.328125 -0.578125 3.390625 -0.75 3.4375 -0.90625 C 3.609375 -1.328125 3.921875 -2.1875 3.921875 -2.640625 C 3.921875 -3.328125 3.453125 -3.5 3.015625 -3.5 C 2.4375 -3.5 2.078125 -3.171875 1.890625 -2.96875 L 2.46875 -5.28125 C 2.484375 -5.328125 2.5 -5.375 2.5 -5.40625 C 2.5 -5.53125 2.375 -5.515625 2.28125 -5.515625 L 1.453125 -5.4375 C 1.34375 -5.4375 1.25 -5.421875 1.25 -5.28125 C 1.25 -5.171875 1.359375 -5.171875 1.46875 -5.171875 C 1.84375 -5.171875 1.84375 -5.125 1.84375 -5.046875 C 1.84375 -5.015625 1.828125 -4.921875 1.8125 -4.875 L 0.65625 -0.265625 C 0.65625 -0.234375 0.640625 -0.1875 0.640625 -0.15625 C 0.640625 -0.046875 0.71875 0.078125 0.875 0.078125 C 1.015625 0.078125 1.125 -0.015625 1.171875 -0.125 C 1.1875 -0.15625 1.390625 -0.984375 1.53125 -1.546875 C 1.578125 -1.71875 1.625 -1.890625 1.65625 -2.0625 C 1.703125 -2.25 2.140625 -3.28125 3 -3.28125 C 3.328125 -3.28125 3.40625 -3.03125 3.40625 -2.765625 C 3.40625 -2.296875 3.0625 -1.40625 2.921875 -1 C 2.859375 -0.84375 2.8125 -0.71875 2.8125 -0.578125 C 2.8125 -0.21875 3.078125 0.078125 3.484375 0.078125 C 4.234375 0.078125 4.578125 -1.03125 4.578125 -1.140625 Z M 4.578125 -1.140625 "/>
</g>
<g id="glyph-3-4">
<path d="M 3.328125 -1.234375 C 3.328125 -1.953125 2.625 -2.09375 2.375 -2.140625 C 2.015625 -2.21875 1.75 -2.28125 1.75 -2.59375 C 1.75 -2.828125 1.953125 -3.28125 2.5625 -3.28125 C 2.828125 -3.28125 3.09375 -3.203125 3.1875 -2.953125 C 2.90625 -2.875 2.90625 -2.625 2.90625 -2.625 C 2.90625 -2.484375 3.015625 -2.390625 3.15625 -2.390625 C 3.1875 -2.390625 3.5 -2.390625 3.5 -2.828125 C 3.5 -3.296875 3.03125 -3.5 2.578125 -3.5 C 1.515625 -3.5 1.25 -2.640625 1.25 -2.34375 C 1.25 -2.125 1.34375 -1.90625 1.515625 -1.78125 C 1.6875 -1.625 1.78125 -1.609375 2.25 -1.5 C 2.421875 -1.46875 2.84375 -1.390625 2.84375 -0.984375 C 2.84375 -0.734375 2.625 -0.140625 1.75 -0.140625 C 1.59375 -0.140625 1.125 -0.171875 0.953125 -0.53125 C 1.3125 -0.59375 1.3125 -0.90625 1.3125 -0.921875 C 1.3125 -1.078125 1.203125 -1.1875 1.03125 -1.1875 C 0.8125 -1.1875 0.625 -1.03125 0.625 -0.6875 C 0.625 -0.25 1.0625 0.078125 1.75 0.078125 C 3 0.078125 3.328125 -0.859375 3.328125 -1.234375 Z M 3.328125 -1.234375 "/>
</g>
<g id="glyph-3-5">
<path d="M 3.03125 -1.140625 C 3.03125 -1.234375 2.921875 -1.234375 2.890625 -1.234375 C 2.78125 -1.234375 2.765625 -1.21875 2.734375 -1.109375 C 2.375 -0.296875 2 -0.140625 1.75 -0.140625 C 1.5625 -0.140625 1.53125 -0.3125 1.53125 -0.5 C 1.53125 -0.546875 1.53125 -0.625 1.546875 -0.71875 L 2.15625 -3.171875 L 2.875 -3.171875 C 3.015625 -3.171875 3.109375 -3.171875 3.109375 -3.3125 C 3.109375 -3.421875 3.015625 -3.421875 2.890625 -3.421875 L 2.21875 -3.421875 L 2.5 -4.578125 C 2.53125 -4.6875 2.53125 -4.703125 2.53125 -4.75 C 2.53125 -4.9375 2.375 -4.96875 2.3125 -4.96875 C 2.046875 -4.96875 1.984375 -4.734375 1.96875 -4.65625 L 1.65625 -3.421875 L 0.953125 -3.421875 C 0.796875 -3.421875 0.703125 -3.421875 0.703125 -3.28125 C 0.703125 -3.171875 0.8125 -3.171875 0.9375 -3.171875 L 1.59375 -3.171875 L 1.046875 -0.9375 C 1 -0.78125 1 -0.734375 1 -0.65625 C 1 -0.1875 1.359375 0.078125 1.734375 0.078125 C 2.578125 0.078125 3.03125 -1.03125 3.03125 -1.140625 Z M 3.03125 -1.140625 "/>
</g>
<g id="glyph-3-6">
<path d="M 4 -0.796875 C 4 -0.859375 3.890625 -0.96875 3.828125 -0.96875 C 3.78125 -0.96875 3.78125 -0.953125 3.703125 -0.859375 C 3.28125 -0.34375 2.640625 -0.140625 2.21875 -0.140625 C 1.65625 -0.140625 1.53125 -0.6875 1.53125 -1.046875 C 1.53125 -1.234375 1.59375 -1.578125 1.640625 -1.8125 L 2.09375 -1.8125 C 2.421875 -1.8125 3.90625 -1.8125 3.90625 -2.8125 C 3.90625 -3.21875 3.5625 -3.5 3.015625 -3.5 C 2.15625 -3.5 0.953125 -2.765625 0.953125 -1.359375 C 0.953125 -0.625 1.359375 0.078125 2.203125 0.078125 C 3.34375 0.078125 4 -0.6875 4 -0.796875 Z M 3.5625 -2.8125 C 3.5625 -2.03125 2.328125 -2.03125 2.03125 -2.03125 L 1.703125 -2.03125 C 1.96875 -3.015625 2.671875 -3.28125 3.015625 -3.28125 C 3.296875 -3.28125 3.5625 -3.140625 3.5625 -2.8125 Z M 3.5625 -2.8125 "/>
</g>
<g id="glyph-3-7">
<path d="M 4.296875 -2.234375 C 4.296875 -3.09375 3.78125 -3.5 3.25 -3.5 C 2.8125 -3.5 2.4375 -3.1875 2.234375 -2.96875 C 2.125 -3.34375 1.8125 -3.5 1.515625 -3.5 C 1.25 -3.5 1.0625 -3.359375 0.90625 -3.078125 C 0.75 -2.8125 0.640625 -2.328125 0.640625 -2.296875 C 0.640625 -2.1875 0.734375 -2.1875 0.78125 -2.1875 C 0.921875 -2.1875 0.921875 -2.21875 0.96875 -2.40625 C 1.09375 -2.875 1.234375 -3.28125 1.5 -3.28125 C 1.71875 -3.28125 1.71875 -3 1.71875 -2.9375 C 1.71875 -2.8125 1.703125 -2.765625 1.703125 -2.71875 L 0.78125 0.984375 C 0.71875 1.234375 0.671875 1.28125 0.375 1.28125 C 0.28125 1.28125 0.1875 1.28125 0.1875 1.4375 C 0.1875 1.46875 0.203125 1.546875 0.296875 1.546875 C 0.359375 1.546875 0.40625 1.515625 0.984375 1.515625 C 1.546875 1.515625 1.671875 1.546875 1.734375 1.546875 C 1.78125 1.546875 1.890625 1.546875 1.890625 1.390625 C 1.890625 1.28125 1.796875 1.28125 1.6875 1.28125 C 1.46875 1.28125 1.296875 1.28125 1.296875 1.171875 C 1.296875 1.125 1.359375 0.921875 1.390625 0.78125 L 1.671875 -0.359375 C 1.859375 -0.0625 2.109375 0.078125 2.40625 0.078125 C 3.3125 0.078125 4.296875 -1.03125 4.296875 -2.234375 Z M 3.328125 -0.953125 C 3.078125 -0.421875 2.703125 -0.140625 2.40625 -0.140625 C 1.890625 -0.140625 1.8125 -0.84375 1.8125 -0.90625 C 1.8125 -0.921875 1.828125 -0.96875 1.84375 -1 L 2.171875 -2.359375 C 2.21875 -2.5 2.21875 -2.515625 2.328125 -2.671875 C 2.6875 -3.140625 3.015625 -3.28125 3.234375 -3.28125 C 3.46875 -3.28125 3.71875 -3.09375 3.71875 -2.546875 C 3.71875 -2.125 3.484375 -1.28125 3.328125 -0.953125 Z M 3.328125 -0.953125 "/>
</g>
<g id="glyph-3-8">
<path d="M 4.09375 -2.953125 C 4.09375 -3.421875 3.515625 -3.5 3.25 -3.5 C 2.796875 -3.5 2.453125 -3.25 2.234375 -2.953125 C 2.15625 -3.265625 1.90625 -3.5 1.515625 -3.5 C 1.25 -3.5 1.0625 -3.359375 0.90625 -3.078125 C 0.75 -2.8125 0.640625 -2.328125 0.640625 -2.296875 C 0.640625 -2.1875 0.734375 -2.1875 0.78125 -2.1875 C 0.921875 -2.1875 0.921875 -2.21875 0.96875 -2.40625 C 1.09375 -2.875 1.234375 -3.28125 1.5 -3.28125 C 1.71875 -3.28125 1.71875 -3 1.71875 -2.9375 C 1.71875 -2.828125 1.703125 -2.703125 1.671875 -2.578125 L 1.09375 -0.265625 C 1.078125 -0.1875 1.078125 -0.171875 1.078125 -0.140625 C 1.078125 -0.015625 1.171875 0.078125 1.3125 0.078125 C 1.53125 0.078125 1.609375 -0.109375 1.640625 -0.234375 L 2.125 -2.171875 C 2.15625 -2.296875 2.53125 -3.28125 3.25 -3.28125 C 3.3125 -3.28125 3.546875 -3.28125 3.6875 -3.15625 C 3.4375 -3.0625 3.421875 -2.859375 3.421875 -2.796875 C 3.421875 -2.5625 3.59375 -2.515625 3.703125 -2.515625 C 3.84375 -2.515625 4.09375 -2.625 4.09375 -2.953125 Z M 4.09375 -2.953125 "/>
</g>
<g id="glyph-3-9">
<path d="M 2.828125 -1.140625 C 2.828125 -1.234375 2.71875 -1.234375 2.671875 -1.234375 C 2.546875 -1.234375 2.53125 -1.203125 2.5 -1.078125 C 2.359375 -0.5625 2.09375 -0.140625 1.75 -0.140625 C 1.609375 -0.140625 1.578125 -0.25 1.578125 -0.390625 C 1.578125 -0.578125 1.625 -0.71875 1.75 -1.046875 L 2.28125 -2.4375 C 2.34375 -2.609375 2.375 -2.6875 2.375 -2.84375 C 2.375 -3.28125 2.046875 -3.5 1.71875 -3.5 C 0.96875 -3.5 0.640625 -2.390625 0.640625 -2.296875 C 0.640625 -2.1875 0.734375 -2.1875 0.78125 -2.1875 C 0.921875 -2.1875 0.921875 -2.21875 0.953125 -2.359375 C 1.078125 -2.765625 1.3125 -3.28125 1.703125 -3.28125 C 1.84375 -3.28125 1.875 -3.1875 1.875 -3.03125 C 1.875 -2.859375 1.828125 -2.703125 1.71875 -2.421875 L 1.15625 -0.953125 C 1.125 -0.859375 1.078125 -0.71875 1.078125 -0.578125 C 1.078125 -0.21875 1.34375 0.078125 1.734375 0.078125 C 2.5 0.078125 2.828125 -1.046875 2.828125 -1.140625 Z M 2.953125 -4.828125 C 2.953125 -5.109375 2.734375 -5.203125 2.578125 -5.203125 C 2.3125 -5.203125 2.046875 -4.953125 2.046875 -4.6875 C 2.046875 -4.453125 2.234375 -4.3125 2.421875 -4.3125 C 2.6875 -4.3125 2.953125 -4.546875 2.953125 -4.828125 Z M 2.953125 -4.828125 "/>
</g>
<g id="glyph-3-10">
<path d="M 5 -1.140625 C 5 -1.234375 4.890625 -1.234375 4.84375 -1.234375 C 4.71875 -1.234375 4.71875 -1.203125 4.671875 -1.078125 C 4.53125 -0.5625 4.265625 -0.140625 3.921875 -0.140625 C 3.78125 -0.140625 3.75 -0.25 3.75 -0.390625 C 3.75 -0.578125 3.8125 -0.75 3.875 -0.90625 C 4.03125 -1.328125 4.359375 -2.1875 4.359375 -2.640625 C 4.359375 -3.328125 3.890625 -3.5 3.453125 -3.5 C 2.78125 -3.5 2.40625 -3.046875 2.25 -2.875 C 2.203125 -3.234375 1.90625 -3.5 1.515625 -3.5 C 1.25 -3.5 1.0625 -3.359375 0.90625 -3.078125 C 0.75 -2.8125 0.640625 -2.328125 0.640625 -2.296875 C 0.640625 -2.1875 0.734375 -2.1875 0.78125 -2.1875 C 0.921875 -2.1875 0.921875 -2.21875 0.96875 -2.40625 C 1.09375 -2.875 1.234375 -3.28125 1.5 -3.28125 C 1.71875 -3.28125 1.71875 -3 1.71875 -2.9375 C 1.71875 -2.828125 1.703125 -2.703125 1.671875 -2.578125 L 1.09375 -0.265625 C 1.078125 -0.1875 1.078125 -0.171875 1.078125 -0.140625 C 1.078125 -0.015625 1.171875 0.078125 1.3125 0.078125 C 1.5625 0.078125 1.609375 -0.109375 1.6875 -0.40625 L 1.859375 -1.09375 C 1.90625 -1.265625 1.90625 -1.28125 1.984375 -1.609375 L 2.109375 -2.125 C 2.15625 -2.265625 2.40625 -2.734375 2.640625 -2.953125 C 2.890625 -3.171875 3.15625 -3.28125 3.421875 -3.28125 C 3.734375 -3.28125 3.828125 -3.0625 3.828125 -2.765625 C 3.828125 -2.296875 3.5 -1.390625 3.34375 -1 C 3.296875 -0.84375 3.25 -0.71875 3.25 -0.578125 C 3.25 -0.21875 3.5 0.078125 3.90625 0.078125 C 4.671875 0.078125 5 -1.03125 5 -1.140625 Z M 5 -1.140625 "/>
</g>
<g id="glyph-3-11">
<path d="M 3.75 -5.0625 C 3.75 -5.421875 3.390625 -5.59375 3.03125 -5.59375 C 2.203125 -5.59375 2.015625 -4.59375 1.953125 -4.296875 L 1.796875 -3.421875 L 1.234375 -3.421875 C 1.09375 -3.421875 1 -3.421875 1 -3.28125 C 1 -3.171875 1.109375 -3.171875 1.21875 -3.171875 L 1.734375 -3.171875 L 1.203125 -0.296875 C 1.109375 0.21875 1.09375 0.296875 0.953125 0.765625 C 0.90625 0.953125 0.78125 1.40625 0.515625 1.40625 C 0.328125 1.40625 0.21875 1.296875 0.21875 1.296875 C 0.359375 1.234375 0.484375 1.09375 0.484375 0.921875 C 0.484375 0.6875 0.296875 0.65625 0.203125 0.65625 C -0.03125 0.65625 -0.203125 0.84375 -0.203125 1.09375 C -0.203125 1.453125 0.1875 1.625 0.5 1.625 C 1.328125 1.625 1.65625 0.25 1.828125 -0.6875 L 2.296875 -3.171875 L 2.984375 -3.171875 C 3.125 -3.171875 3.234375 -3.171875 3.234375 -3.3125 C 3.234375 -3.421875 3.125 -3.421875 3 -3.421875 L 2.34375 -3.421875 C 2.46875 -4.0625 2.4375 -4 2.578125 -4.609375 C 2.65625 -5 2.734375 -5.375 3.03125 -5.375 C 3.046875 -5.375 3.21875 -5.375 3.34375 -5.265625 C 3.21875 -5.21875 3.0625 -5.09375 3.0625 -4.90625 C 3.0625 -4.671875 3.265625 -4.625 3.34375 -4.625 C 3.578125 -4.625 3.75 -4.8125 3.75 -5.0625 Z M 3.75 -5.0625 "/>
</g>
<g id="glyph-3-12">
<path d="M 4.296875 -2.15625 C 4.296875 -2.984375 3.734375 -3.5 3.015625 -3.5 C 2 -3.5 0.921875 -2.4375 0.921875 -1.265625 C 0.921875 -0.390625 1.515625 0.078125 2.171875 0.078125 C 3.234375 0.078125 4.296875 -1.015625 4.296875 -2.15625 Z M 3.703125 -2.4375 C 3.703125 -2.1875 3.578125 -1.421875 3.25 -0.875 C 3 -0.4375 2.5625 -0.140625 2.1875 -0.140625 C 1.890625 -0.140625 1.515625 -0.34375 1.515625 -0.984375 C 1.515625 -1.34375 1.671875 -2.09375 1.9375 -2.53125 C 2.28125 -3.109375 2.75 -3.28125 3.015625 -3.28125 C 3.390625 -3.28125 3.703125 -3 3.703125 -2.4375 Z M 3.703125 -2.4375 "/>
</g>
<g id="glyph-3-13">
<path d="M 4.140625 -1.140625 C 4.140625 -1.234375 4.03125 -1.234375 4 -1.234375 C 3.890625 -1.234375 3.859375 -1.21875 3.828125 -1.140625 C 3.578125 -0.3125 3.078125 -0.140625 2.859375 -0.140625 C 2.609375 -0.140625 2.4375 -0.3125 2.4375 -0.640625 C 2.4375 -0.8125 2.53125 -1.203125 2.609375 -1.46875 L 2.859375 -2.5 C 2.984375 -3 3.265625 -3.28125 3.5625 -3.28125 C 3.765625 -3.28125 3.90625 -3.1875 3.921875 -3.171875 C 3.84375 -3.15625 3.640625 -3.015625 3.640625 -2.796875 C 3.640625 -2.5625 3.8125 -2.515625 3.921875 -2.515625 C 4.078125 -2.515625 4.3125 -2.625 4.3125 -2.953125 C 4.3125 -3.390625 3.828125 -3.5 3.578125 -3.5 C 3.25 -3.5 2.96875 -3.328125 2.765625 -3 C 2.671875 -3.203125 2.421875 -3.5 1.9375 -3.5 C 1.109375 -3.5 0.640625 -2.5 0.640625 -2.296875 C 0.640625 -2.1875 0.734375 -2.1875 0.78125 -2.1875 C 0.890625 -2.1875 0.921875 -2.21875 0.9375 -2.296875 C 1.1875 -3.078125 1.65625 -3.28125 1.921875 -3.28125 C 2.1875 -3.28125 2.34375 -3.078125 2.34375 -2.78125 C 2.34375 -2.625 2.296875 -2.453125 2.21875 -2.109375 L 1.953125 -1.078125 C 1.890625 -0.8125 1.71875 -0.140625 1.21875 -0.140625 C 1.046875 -0.140625 0.90625 -0.21875 0.859375 -0.25 C 1.015625 -0.3125 1.140625 -0.46875 1.140625 -0.640625 C 1.140625 -0.859375 0.953125 -0.90625 0.859375 -0.90625 C 0.625 -0.90625 0.453125 -0.703125 0.453125 -0.46875 C 0.453125 -0.09375 0.859375 0.078125 1.203125 0.078125 C 1.5625 0.078125 1.828125 -0.140625 2.015625 -0.421875 C 2.15625 -0.125 2.453125 0.078125 2.84375 0.078125 C 3.671875 0.078125 4.140625 -0.90625 4.140625 -1.140625 Z M 4.140625 -1.140625 "/>
</g>
<g id="glyph-3-14">
<path d="M 2.5 -3.0625 C 2.5 -3.3125 2.3125 -3.421875 2.125 -3.421875 C 1.890625 -3.421875 1.59375 -3.203125 1.59375 -2.90625 C 1.59375 -2.671875 1.78125 -2.546875 1.96875 -2.546875 C 2.21875 -2.546875 2.5 -2.78125 2.5 -3.0625 Z M 1.84375 -0.453125 C 1.84375 -0.53125 1.84375 -0.875 1.5 -0.875 C 1.15625 -0.875 0.953125 -0.578125 0.953125 -0.34375 C 0.953125 -0.1875 1.046875 0 1.328125 0 C 1.453125 0 1.484375 -0.015625 1.546875 -0.046875 C 1.375 0.609375 0.96875 1.0625 0.75 1.265625 C 0.625 1.390625 0.625 1.390625 0.625 1.421875 C 0.625 1.484375 0.671875 1.546875 0.734375 1.546875 C 0.875 1.546875 1.84375 0.53125 1.84375 -0.453125 Z M 1.84375 -0.453125 "/>
</g>
<g id="glyph-3-15">
<path d="M 2.78125 -1.578125 C 2.796875 -1.640625 2.84375 -1.796875 2.84375 -1.84375 C 2.84375 -1.953125 2.75 -1.953125 2.625 -1.953125 L 0.984375 -1.953125 C 0.828125 -1.953125 0.78125 -1.953125 0.765625 -1.84375 C 0.75 -1.796875 0.703125 -1.625 0.703125 -1.59375 C 0.703125 -1.46875 0.78125 -1.46875 0.921875 -1.46875 L 2.5625 -1.46875 C 2.71875 -1.46875 2.75 -1.46875 2.78125 -1.578125 Z M 2.78125 -1.578125 "/>
</g>
<g id="glyph-3-16">
<path d="M 5 -1.140625 C 5 -1.234375 4.890625 -1.234375 4.84375 -1.234375 C 4.71875 -1.234375 4.71875 -1.21875 4.671875 -1.015625 C 4.515625 -0.40625 4.34375 -0.140625 4.140625 -0.140625 C 3.90625 -0.140625 3.90625 -0.390625 3.90625 -0.5 C 3.90625 -0.546875 3.90625 -0.625 3.9375 -0.71875 L 4.5625 -3.234375 C 4.5625 -3.265625 4.578125 -3.3125 4.578125 -3.328125 C 4.578125 -3.421875 4.484375 -3.421875 4.359375 -3.421875 L 2.34375 -3.421875 L 2.484375 -4.171875 C 2.65625 -4.984375 2.78125 -5.375 3.765625 -5.375 C 4 -5.375 4.375 -5.359375 4.578125 -5.203125 C 4.578125 -5.203125 4.296875 -5.078125 4.296875 -4.8125 C 4.296875 -4.65625 4.40625 -4.546875 4.578125 -4.546875 C 4.78125 -4.546875 4.984375 -4.71875 4.984375 -5 C 4.984375 -5.578125 4.140625 -5.59375 3.75 -5.59375 C 3.09375 -5.59375 2.1875 -5.53125 1.9375 -4.203125 L 1.796875 -3.421875 L 1.234375 -3.421875 C 1.09375 -3.421875 1 -3.421875 1 -3.28125 C 1 -3.171875 1.09375 -3.171875 1.21875 -3.171875 L 1.734375 -3.171875 L 1.203125 -0.328125 C 1.109375 0.171875 1.09375 0.296875 0.96875 0.765625 C 0.90625 0.96875 0.78125 1.40625 0.515625 1.40625 C 0.328125 1.40625 0.21875 1.296875 0.21875 1.296875 C 0.359375 1.234375 0.484375 1.09375 0.484375 0.921875 C 0.484375 0.6875 0.296875 0.65625 0.203125 0.65625 C -0.03125 0.65625 -0.203125 0.84375 -0.203125 1.09375 C -0.203125 1.453125 0.1875 1.625 0.5 1.625 C 1.3125 1.625 1.640625 0.296875 1.8125 -0.59375 L 2.296875 -3.171875 L 3.984375 -3.171875 L 3.421875 -0.9375 C 3.390625 -0.78125 3.390625 -0.734375 3.390625 -0.65625 C 3.390625 -0.171875 3.75 0.078125 4.125 0.078125 C 4.40625 0.078125 4.59375 -0.09375 4.734375 -0.34375 C 4.90625 -0.65625 5 -1.140625 5 -1.140625 Z M 5 -1.140625 "/>
</g>
<g id="glyph-3-17">
<path d="M 4.78125 -1.140625 C 4.78125 -1.234375 4.671875 -1.234375 4.640625 -1.234375 C 4.5 -1.234375 4.5 -1.21875 4.453125 -1.015625 C 4.296875 -0.40625 4.140625 -0.140625 3.921875 -0.140625 C 3.703125 -0.140625 3.703125 -0.390625 3.703125 -0.5 C 3.703125 -0.546875 3.703125 -0.625 3.71875 -0.71875 L 4.296875 -3.046875 C 4.328125 -3.15625 4.328125 -3.171875 4.328125 -3.203125 C 4.328125 -3.34375 4.21875 -3.421875 4.09375 -3.421875 C 3.828125 -3.421875 3.765625 -3.1875 3.75 -3.109375 L 3.21875 -0.921875 C 3.171875 -0.765625 2.84375 -0.140625 2.3125 -0.140625 C 1.84375 -0.140625 1.84375 -0.625 1.84375 -0.765625 C 1.84375 -1.203125 2.03125 -1.75 2.296875 -2.453125 C 2.359375 -2.609375 2.390625 -2.6875 2.390625 -2.84375 C 2.390625 -3.28125 2.0625 -3.5 1.71875 -3.5 C 0.96875 -3.5 0.640625 -2.390625 0.640625 -2.296875 C 0.640625 -2.1875 0.734375 -2.1875 0.78125 -2.1875 C 0.921875 -2.1875 0.921875 -2.21875 0.953125 -2.359375 C 1.09375 -2.84375 1.359375 -3.28125 1.703125 -3.28125 C 1.859375 -3.28125 1.890625 -3.1875 1.890625 -3.03125 C 1.890625 -2.859375 1.828125 -2.6875 1.75 -2.5 C 1.53125 -1.890625 1.296875 -1.3125 1.296875 -0.875 C 1.296875 -0.15625 1.828125 0.078125 2.28125 0.078125 C 2.453125 0.078125 2.8125 0.0625 3.21875 -0.40625 C 3.328125 -0.015625 3.703125 0.078125 3.90625 0.078125 C 4.1875 0.078125 4.375 -0.09375 4.515625 -0.34375 C 4.6875 -0.65625 4.78125 -1.140625 4.78125 -1.140625 Z M 4.78125 -1.140625 "/>
</g>
<g id="glyph-3-18">
<path d="M 2.390625 -1.140625 C 2.390625 -1.234375 2.28125 -1.234375 2.234375 -1.234375 C 2.109375 -1.234375 2.09375 -1.203125 2.0625 -1.078125 C 1.953125 -0.671875 1.828125 -0.140625 1.53125 -0.140625 C 1.3125 -0.140625 1.3125 -0.390625 1.3125 -0.5 C 1.3125 -0.546875 1.3125 -0.625 1.34375 -0.71875 L 2.46875 -5.28125 C 2.484375 -5.328125 2.5 -5.375 2.5 -5.40625 C 2.5 -5.53125 2.375 -5.515625 2.28125 -5.515625 L 1.453125 -5.4375 C 1.34375 -5.4375 1.25 -5.421875 1.25 -5.28125 C 1.25 -5.171875 1.359375 -5.171875 1.46875 -5.171875 C 1.84375 -5.171875 1.84375 -5.125 1.84375 -5.046875 C 1.84375 -5.015625 1.828125 -4.921875 1.8125 -4.875 L 0.828125 -0.9375 C 0.78125 -0.78125 0.78125 -0.734375 0.78125 -0.65625 C 0.78125 -0.171875 1.15625 0.078125 1.515625 0.078125 C 1.6875 0.078125 1.9375 0.03125 2.125 -0.359375 C 2.28125 -0.640625 2.390625 -1.109375 2.390625 -1.140625 Z M 2.390625 -1.140625 "/>
</g>
</g>
<clipPath id="clip-0">
<path clip-rule="nonzero" d="M 0 0.0898438 L 142 0.0898438 L 142 86 L 0 86 Z M 0 0.0898438 "/>
</clipPath>
<clipPath id="clip-1">
<path clip-rule="nonzero" d="M 181 0.0898438 L 323.5625 0.0898438 L 323.5625 86 L 181 86 Z M 181 0.0898438 "/>
</clipPath>
<clipPath id="clip-2">
<path clip-rule="nonzero" d="M 181 181 L 323.5625 181 L 323.5625 267.085938 L 181 267.085938 Z M 181 181 "/>
</clipPath>
<clipPath id="clip-3">
<path clip-rule="nonzero" d="M 0 181 L 142 181 L 142 267.085938 L 0 267.085938 Z M 0 181 "/>
</clipPath>
<clipPath id="clip-4">
<path clip-rule="nonzero" d="M 107 0.0898438 L 210 0.0898438 L 210 45 L 107 45 Z M 107 0.0898438 "/>
</clipPath>
<clipPath id="clip-5">
<path clip-rule="nonzero" d="M 162 0.0898438 L 215 0.0898438 L 215 45 L 162 45 Z M 162 0.0898438 "/>
</clipPath>
<clipPath id="clip-6">
<path clip-rule="nonzero" d="M 113 222 L 217 222 L 217 267.085938 L 113 267.085938 Z M 113 222 "/>
</clipPath>
<clipPath id="clip-7">
<path clip-rule="nonzero" d="M 109 222 L 162 222 L 162 267.085938 L 109 267.085938 Z M 109 222 "/>
</clipPath>
</defs>
<path fill-rule="nonzero" fill="rgb(50%, 50%, 50%)" fill-opacity="0.1" d="M 119.238281 11.96875 L 20.328125 11.96875 C 14.835938 11.96875 10.386719 16.417969 10.386719 21.910156 L 10.386719 64.253906 C 10.386719 69.742188 14.835938 74.191406 20.328125 74.191406 L 119.238281 74.191406 C 124.730469 74.191406 129.179688 69.742188 129.179688 64.253906 L 129.179688 21.910156 C 129.179688 16.417969 124.730469 11.96875 119.238281 11.96875 Z M 119.238281 11.96875 "/>
<path fill-rule="nonzero" fill="rgb(93.159485%, 95.106506%, 99.372864%)" fill-opacity="1" d="M 119.238281 10.476562 L 20.328125 10.476562 C 14.835938 10.476562 10.386719 14.925781 10.386719 20.417969 L 10.386719 62.761719 C 10.386719 68.25 14.835938 72.703125 20.328125 72.703125 L 119.238281 72.703125 C 124.730469 72.703125 129.179688 68.25 129.179688 62.761719 L 129.179688 20.417969 C 129.179688 14.925781 124.730469 10.476562 119.238281 10.476562 Z M 119.238281 10.476562 "/>
<g clip-path="url(#clip-0)">
<path fill="none" stroke-width="0.89664" stroke-linecap="butt" stroke-linejoin="miter" stroke="rgb(57.255554%, 69.410706%, 96.076965%)" stroke-opacity="1" stroke-miterlimit="10" d="M -42.638342 123.384859 L -141.767803 123.384859 C -147.272168 123.384859 -151.731252 118.925775 -151.731252 113.42141 L -151.731252 70.983775 C -151.731252 65.483325 -147.272168 61.020326 -141.767803 61.020326 L -42.638342 61.020326 C -37.133977 61.020326 -32.674894 65.483325 -32.674894 70.983775 L -32.674894 113.42141 C -32.674894 118.925775 -37.133977 123.384859 -42.638342 123.384859 Z M -42.638342 123.384859 " transform="matrix(0.997788, 0, 0, -0.997788, 161.782294, 133.588456)"/>
</g>
<g fill="rgb(0%, 0%, 0%)" fill-opacity="1">
<use xlink:href="#glyph-0-0" x="47.596468" y="38.083211"/>
<use xlink:href="#glyph-0-1" x="50.881823" y="38.083211"/>
<use xlink:href="#glyph-0-2" x="56.459471" y="38.083211"/>
<use xlink:href="#glyph-0-3" x="60.477446" y="38.083211"/>
<use xlink:href="#glyph-0-4" x="65.558066" y="38.083211"/>
<use xlink:href="#glyph-0-5" x="69.257942" y="38.083211"/>
<use xlink:href="#glyph-0-6" x="72.598964" y="38.083211"/>
<use xlink:href="#glyph-0-7" x="77.817758" y="38.083211"/>
<use xlink:href="#glyph-0-3" x="82.677698" y="38.083211"/>
<use xlink:href="#glyph-0-8" x="87.758318" y="38.083211"/>
</g>
<g fill="rgb(0%, 0%, 0%)" fill-opacity="1">
<use xlink:href="#glyph-1-0" x="33.436863" y="52.000354"/>
<use xlink:href="#glyph-1-1" x="39.207969" y="52.000354"/>
<use xlink:href="#glyph-1-2" x="43.570693" y="52.000354"/>
<use xlink:href="#glyph-1-3" x="47.629632" y="52.000354"/>
</g>
<g fill="rgb(0%, 0%, 0%)" fill-opacity="1">
<use xlink:href="#glyph-1-0" x="53.496168" y="52.000354"/>
</g>
<g fill="rgb(0%, 0%, 0%)" fill-opacity="1">
<use xlink:href="#glyph-1-4" x="59.036652" y="52.000354"/>
</g>
<g fill="rgb(0%, 0%, 0%)" fill-opacity="1">
<use xlink:href="#glyph-1-5" x="65.606981" y="52.000354"/>
<use xlink:href="#glyph-1-4" x="67.622931" y="52.000354"/>
<use xlink:href="#glyph-1-3" x="71.378087" y="52.000354"/>
</g>
<g fill="rgb(0%, 0%, 0%)" fill-opacity="1">
<use xlink:href="#glyph-1-6" x="77.244622" y="52.000354"/>
<use xlink:href="#glyph-1-7" x="81.607346" y="52.000354"/>
<use xlink:href="#glyph-1-4" x="84.846386" y="52.000354"/>
<use xlink:href="#glyph-1-8" x="88.601541" y="52.000354"/>
<use xlink:href="#glyph-1-7" x="91.487492" y="52.000354"/>
</g>
<g fill="rgb(0%, 0%, 0%)" fill-opacity="1">
<use xlink:href="#glyph-1-9" x="97.541705" y="52.000354"/>
<use xlink:href="#glyph-1-10" x="101.904429" y="52.000354"/>
</g>
<path fill-rule="nonzero" fill="rgb(50%, 50%, 50%)" fill-opacity="0.1" d="M 303.238281 11.96875 L 204.324219 11.96875 C 198.835938 11.96875 194.386719 16.417969 194.386719 21.910156 L 194.386719 64.253906 C 194.386719 69.742188 198.835938 74.191406 204.324219 74.191406 L 303.238281 74.191406 C 308.726562 74.191406 313.179688 69.742188 313.179688 64.253906 L 313.179688 21.910156 C 313.179688 16.417969 308.726562 11.96875 303.238281 11.96875 Z M 303.238281 11.96875 "/>
<path fill-rule="nonzero" fill="rgb(95.890808%, 93.818665%, 99.433899%)" fill-opacity="1" d="M 303.238281 10.476562 L 204.324219 10.476562 C 198.835938 10.476562 194.386719 14.925781 194.386719 20.417969 L 194.386719 62.761719 C 194.386719 68.25 198.835938 72.703125 204.324219 72.703125 L 303.238281 72.703125 C 308.726562 72.703125 313.179688 68.25 313.179688 62.761719 L 313.179688 20.417969 C 313.179688 14.925781 308.726562 10.476562 303.238281 10.476562 Z M 303.238281 10.476562 "/>
<g clip-path="url(#clip-1)">
<path fill="none" stroke-width="0.89664" stroke-linecap="butt" stroke-linejoin="miter" stroke="rgb(74.311829%, 61.37085%, 96.469116%)" stroke-opacity="1" stroke-miterlimit="10" d="M 141.769625 123.384859 L 42.636249 123.384859 C 37.135799 123.384859 32.676715 118.925775 32.676715 113.42141 L 32.676715 70.983775 C 32.676715 65.483325 37.135799 61.020326 42.636249 61.020326 L 141.769625 61.020326 C 147.270075 61.020326 151.733074 65.483325 151.733074 70.983775 L 151.733074 113.42141 C 151.733074 118.925775 147.270075 123.384859 141.769625 123.384859 Z M 141.769625 123.384859 " transform="matrix(0.997788, 0, 0, -0.997788, 161.782294, 133.588456)"/>
</g>
<g fill="rgb(0%, 0%, 0%)" fill-opacity="1">
<use xlink:href="#glyph-0-9" x="230.093833" y="38.083211"/>
<use xlink:href="#glyph-0-10" x="236.47269" y="38.083211"/>
<use xlink:href="#glyph-0-11" x="241.44297" y="38.083211"/>
</g>
<g fill="rgb(0%, 0%, 0%)" fill-opacity="1">
<use xlink:href="#glyph-0-4" x="246.712461" y="38.083211"/>
<use xlink:href="#glyph-0-3" x="250.412337" y="38.083211"/>
<use xlink:href="#glyph-0-8" x="255.492957" y="38.083211"/>
<use xlink:href="#glyph-0-8" x="259.684891" y="38.083211"/>
<use xlink:href="#glyph-0-12" x="263.876825" y="38.083211"/>
<use xlink:href="#glyph-0-13" x="266.416638" y="38.083211"/>
<use xlink:href="#glyph-0-1" x="271.883946" y="38.083211"/>
</g>
<g fill="rgb(0%, 0%, 0%)" fill-opacity="1">
<use xlink:href="#glyph-1-1" x="204.840824" y="52.000354"/>
<use xlink:href="#glyph-1-10" x="209.203548" y="52.000354"/>
</g>
<g fill="rgb(0%, 0%, 0%)" fill-opacity="1">
<use xlink:href="#glyph-1-0" x="213.19012" y="52.000354"/>
</g>
<g fill="rgb(0%, 0%, 0%)" fill-opacity="1">
<use xlink:href="#glyph-1-6" x="221.784352" y="52.000354"/>
<use xlink:href="#glyph-1-7" x="226.147076" y="52.000354"/>
<use xlink:href="#glyph-1-4" x="229.386116" y="52.000354"/>
<use xlink:href="#glyph-1-8" x="233.141271" y="52.000354"/>
<use xlink:href="#glyph-1-7" x="236.027222" y="52.000354"/>
</g>
<g fill="rgb(0%, 0%, 0%)" fill-opacity="1">
<use xlink:href="#glyph-1-4" x="242.081435" y="52.000354"/>
<use xlink:href="#glyph-1-11" x="245.83659" y="52.000354"/>
<use xlink:href="#glyph-1-3" x="249.730119" y="52.000354"/>
<use xlink:href="#glyph-1-4" x="252.78148" y="52.000354"/>
<use xlink:href="#glyph-1-8" x="256.536636" y="52.000354"/>
<use xlink:href="#glyph-1-12" x="259.422586" y="52.000354"/>
<use xlink:href="#glyph-1-2" x="263.78531" y="52.000354"/>
<use xlink:href="#glyph-1-5" x="267.84425" y="52.000354"/>
<use xlink:href="#glyph-1-13" x="269.8602" y="52.000354"/>
<use xlink:href="#glyph-1-14" x="271.876151" y="52.000354"/>
<use xlink:href="#glyph-1-4" x="275.5486" y="52.000354"/>
</g>
<g fill="rgb(0%, 0%, 0%)" fill-opacity="1">
<use xlink:href="#glyph-1-13" x="282.118929" y="52.000354"/>
<use xlink:href="#glyph-1-12" x="284.13488" y="52.000354"/>
<use xlink:href="#glyph-1-3" x="288.497603" y="52.000354"/>
<use xlink:href="#glyph-1-4" x="291.548965" y="52.000354"/>
<use xlink:href="#glyph-1-12" x="295.30412" y="52.000354"/>
<use xlink:href="#glyph-1-3" x="299.666844" y="52.000354"/>
</g>
<path fill-rule="nonzero" fill="rgb(50%, 50%, 50%)" fill-opacity="0.1" d="M 303.238281 195.964844 L 204.324219 195.964844 C 198.835938 195.964844 194.386719 200.417969 194.386719 205.90625 L 194.386719 248.25 C 194.386719 253.742188 198.835938 258.191406 204.324219 258.191406 L 303.238281 258.191406 C 308.726562 258.191406 313.179688 253.742188 313.179688 248.25 L 313.179688 205.90625 C 313.179688 200.417969 308.726562 195.964844 303.238281 195.964844 Z M 303.238281 195.964844 "/>
<path fill-rule="nonzero" fill="rgb(99.1745%, 93.450928%, 90.470886%)" fill-opacity="1" d="M 303.238281 194.476562 L 204.324219 194.476562 C 198.835938 194.476562 194.386719 198.925781 194.386719 204.414062 L 194.386719 246.757812 C 194.386719 252.25 198.835938 256.699219 204.324219 256.699219 L 303.238281 256.699219 C 308.726562 256.699219 313.179688 252.25 313.179688 246.757812 L 313.179688 204.414062 C 313.179688 198.925781 308.726562 194.476562 303.238281 194.476562 Z M 303.238281 194.476562 "/>
<g clip-path="url(#clip-2)">
<path fill="none" stroke-width="0.89664" stroke-linecap="butt" stroke-linejoin="miter" stroke="rgb(95.057678%, 60.705566%, 42.823792%)" stroke-opacity="1" stroke-miterlimit="10" d="M 141.769625 -61.023109 L 42.636249 -61.023109 C 37.135799 -61.023109 32.676715 -65.482192 32.676715 -70.982642 L 32.676715 -113.420277 C 32.676715 -118.924642 37.135799 -123.383726 42.636249 -123.383726 L 141.769625 -123.383726 C 147.270075 -123.383726 151.733074 -118.924642 151.733074 -113.420277 L 151.733074 -70.982642 C 151.733074 -65.482192 147.270075 -61.023109 141.769625 -61.023109 Z M 141.769625 -61.023109 " transform="matrix(0.997788, 0, 0, -0.997788, 161.782294, 133.588456)"/>
</g>
<g fill="rgb(0%, 0%, 0%)" fill-opacity="1">
<use xlink:href="#glyph-0-14" x="242.604095" y="221.306965"/>
<use xlink:href="#glyph-0-6" x="250.50187" y="221.306965"/>
<use xlink:href="#glyph-0-2" x="255.720664" y="221.306965"/>
<use xlink:href="#glyph-0-6" x="259.738638" y="221.306965"/>
</g>
<g fill="rgb(0%, 0%, 0%)" fill-opacity="1">
<use xlink:href="#glyph-1-0" x="217.257294" y="235.22311"/>
<use xlink:href="#glyph-1-1" x="223.0284" y="235.22311"/>
<use xlink:href="#glyph-1-2" x="227.391124" y="235.22311"/>
<use xlink:href="#glyph-1-3" x="231.450063" y="235.22311"/>
</g>
<g fill="rgb(0%, 0%, 0%)" fill-opacity="1">
<use xlink:href="#glyph-1-15" x="237.316599" y="235.22311"/>
<use xlink:href="#glyph-1-4" x="241.541745" y="235.22311"/>
<use xlink:href="#glyph-1-3" x="245.2969" y="235.22311"/>
<use xlink:href="#glyph-1-7" x="248.348262" y="235.22311"/>
</g>
<g fill="rgb(0%, 0%, 0%)" fill-opacity="1">
<use xlink:href="#glyph-1-3" x="254.402476" y="235.22311"/>
<use xlink:href="#glyph-1-8" x="257.453838" y="235.22311"/>
<use xlink:href="#glyph-1-2" x="260.339788" y="235.22311"/>
<use xlink:href="#glyph-1-13" x="264.398728" y="235.22311"/>
<use xlink:href="#glyph-1-12" x="266.414678" y="235.22311"/>
<use xlink:href="#glyph-1-4" x="270.777402" y="235.22311"/>
<use xlink:href="#glyph-1-9" x="274.532557" y="235.22311"/>
</g>
<g fill="rgb(0%, 0%, 0%)" fill-opacity="1">
<use xlink:href="#glyph-1-10" x="281.718407" y="235.22311"/>
<use xlink:href="#glyph-1-12" x="285.943553" y="235.22311"/>
</g>
<path fill-rule="nonzero" fill="rgb(50%, 50%, 50%)" fill-opacity="0.1" d="M 119.238281 195.964844 L 20.328125 195.964844 C 14.835938 195.964844 10.386719 200.417969 10.386719 205.90625 L 10.386719 248.25 C 10.386719 253.742188 14.835938 258.191406 20.328125 258.191406 L 119.238281 258.191406 C 124.730469 258.191406 129.179688 253.742188 129.179688 248.25 L 129.179688 205.90625 C 129.179688 200.417969 124.730469 195.964844 119.238281 195.964844 Z M 119.238281 195.964844 "/>
<path fill-rule="nonzero" fill="rgb(92.156982%, 96.705627%, 95.292664%)" fill-opacity="1" d="M 119.238281 194.476562 L 20.328125 194.476562 C 14.835938 194.476562 10.386719 198.925781 10.386719 204.414062 L 10.386719 246.757812 C 10.386719 252.25 14.835938 256.699219 20.328125 256.699219 L 119.238281 256.699219 C 124.730469 256.699219 129.179688 252.25 129.179688 246.757812 L 129.179688 204.414062 C 129.179688 198.925781 124.730469 194.476562 119.238281 194.476562 Z M 119.238281 194.476562 "/>
<g clip-path="url(#clip-3)">
<path fill="none" stroke-width="0.89664" stroke-linecap="butt" stroke-linejoin="miter" stroke="rgb(41.175842%, 75.292969%, 64.704895%)" stroke-opacity="1" stroke-miterlimit="10" d="M -42.638342 -61.023109 L -141.767803 -61.023109 C -147.272168 -61.023109 -151.731252 -65.482192 -151.731252 -70.982642 L -151.731252 -113.420277 C -151.731252 -118.924642 -147.272168 -123.383726 -141.767803 -123.383726 L -42.638342 -123.383726 C -37.133977 -123.383726 -32.674894 -118.924642 -32.674894 -113.420277 L -32.674894 -70.982642 C -32.674894 -65.482192 -37.133977 -61.023109 -42.638342 -61.023109 Z M -42.638342 -61.023109 " transform="matrix(0.997788, 0, 0, -0.997788, 161.782294, 133.588456)"/>
</g>
<g fill="rgb(0%, 0%, 0%)" fill-opacity="1">
<use xlink:href="#glyph-0-15" x="53.33275" y="221.305967"/>
<use xlink:href="#glyph-0-13" x="63.052629" y="221.305967"/>
</g>
<g fill="rgb(0%, 0%, 0%)" fill-opacity="1">
<use xlink:href="#glyph-0-16" x="68.828094" y="221.305967"/>
<use xlink:href="#glyph-0-3" x="74.405742" y="221.305967"/>
<use xlink:href="#glyph-0-17" x="79.486362" y="221.305967"/>
<use xlink:href="#glyph-0-8" x="82.026175" y="221.305967"/>
</g>
<g fill="rgb(0%, 0%, 0%)" fill-opacity="1">
<use xlink:href="#glyph-1-0" x="27.407232" y="235.22311"/>
<use xlink:href="#glyph-1-1" x="33.178338" y="235.22311"/>
<use xlink:href="#glyph-1-2" x="37.541062" y="235.22311"/>
<use xlink:href="#glyph-1-3" x="41.600001" y="235.22311"/>
</g>
<g fill="rgb(0%, 0%, 0%)" fill-opacity="1">
<use xlink:href="#glyph-1-3" x="47.466537" y="235.22311"/>
<use xlink:href="#glyph-1-1" x="50.517899" y="235.22311"/>
<use xlink:href="#glyph-1-4" x="54.880622" y="235.22311"/>
<use xlink:href="#glyph-1-16" x="58.635778" y="235.22311"/>
</g>
<g fill="rgb(0%, 0%, 0%)" fill-opacity="1">
<use xlink:href="#glyph-1-17" x="65.344479" y="235.22311"/>
<use xlink:href="#glyph-1-2" x="69.099635" y="235.22311"/>
<use xlink:href="#glyph-1-12" x="73.158574" y="235.22311"/>
</g>
<g fill="rgb(0%, 0%, 0%)" fill-opacity="1">
<use xlink:href="#glyph-1-8" x="80.344424" y="235.22311"/>
<use xlink:href="#glyph-1-4" x="83.230375" y="235.22311"/>
<use xlink:href="#glyph-1-18" x="86.98553" y="235.22311"/>
</g>
<g fill="rgb(0%, 0%, 0%)" fill-opacity="1">
<use xlink:href="#glyph-1-8" x="91.109679" y="235.22311"/>
<use xlink:href="#glyph-1-4" x="93.99563" y="235.22311"/>
<use xlink:href="#glyph-1-7" x="97.750785" y="235.22311"/>
<use xlink:href="#glyph-1-4" x="100.989825" y="235.22311"/>
<use xlink:href="#glyph-1-12" x="104.744981" y="235.22311"/>
<use xlink:href="#glyph-1-3" x="109.107704" y="235.22311"/>
</g>
<g clip-path="url(#clip-4)">
<path fill="none" stroke-width="1.59404" stroke-linecap="butt" stroke-linejoin="miter" stroke="rgb(5.488586%, 6.666565%, 8.625793%)" stroke-opacity="1" stroke-miterlimit="10" d="M -32.224679 111.67536 C -8.320232 119.442543 8.322054 119.442543 25.524173 113.85205 " transform="matrix(0.997788, 0, 0, -0.997788, 161.782294, 133.588456)"/>
</g>
<path fill-rule="nonzero" fill="rgb(5.488586%, 6.666565%, 8.625793%)" fill-opacity="1" d="M 192.003906 21.53125 L 186.355469 16.585938 L 187.625 20.109375 L 184.527344 22.214844 Z M 192.003906 21.53125 "/>
<g clip-path="url(#clip-5)">
<path fill="none" stroke-width="1.59404" stroke-linecap="butt" stroke-linejoin="miter" stroke="rgb(5.488586%, 6.666565%, 8.625793%)" stroke-opacity="1" stroke-miterlimit="10" d="M 9.300784 0.000580987 L 2.385278 2.965079 L 4.686552 -0.000228635 L 2.385974 -2.96644 Z M 9.300784 0.000580987 " transform="matrix(0.948946, 0.308316, 0.308316, -0.948946, 183.177786, 18.664217)"/>
</g>
<path fill="none" stroke-width="1.59404" stroke-linecap="butt" stroke-linejoin="miter" stroke="rgb(5.488586%, 6.666565%, 8.625793%)" stroke-opacity="1" stroke-miterlimit="10" d="M 102.471749 60.574027 C 117.070452 15.642593 117.070452 -15.64146 104.648439 -53.870566 " transform="matrix(0.997788, 0, 0, -0.997788, 161.782294, 133.588456)"/>
<path fill-rule="nonzero" fill="rgb(5.488586%, 6.666565%, 8.625793%)" fill-opacity="1" stroke-width="1.59404" stroke-linecap="butt" stroke-linejoin="miter" stroke="rgb(5.488586%, 6.666565%, 8.625793%)" stroke-opacity="1" stroke-miterlimit="10" d="M 9.300533 -0.0000275566 L 2.387541 2.969404 L 4.690024 0.000372556 L 2.385723 -2.967049 Z M 9.300533 -0.0000275566 " transform="matrix(-0.308316, 0.948946, 0.948946, 0.308316, 267.523783, 183.268055)"/>
<g clip-path="url(#clip-6)">
<path fill="none" stroke-width="1.59404" stroke-linecap="butt" stroke-linejoin="miter" stroke="rgb(5.488586%, 6.666565%, 8.625793%)" stroke-opacity="1" stroke-miterlimit="10" d="M 32.226501 -111.674227 C 8.322054 -119.44141 -8.320232 -119.44141 -25.522351 -113.854832 " transform="matrix(0.997788, 0, 0, -0.997788, 161.782294, 133.588456)"/>
</g>
<path fill-rule="nonzero" fill="rgb(5.488586%, 6.666565%, 8.625793%)" fill-opacity="1" d="M 131.5625 245.644531 L 137.207031 250.59375 L 135.9375 247.066406 L 139.039062 244.960938 Z M 131.5625 245.644531 "/>
<g clip-path="url(#clip-7)">
<path fill="none" stroke-width="1.59404" stroke-linecap="butt" stroke-linejoin="miter" stroke="rgb(5.488586%, 6.666565%, 8.625793%)" stroke-opacity="1" stroke-miterlimit="10" d="M 9.299401 -0.00105928 L 2.386409 2.968372 L 4.688893 -0.000659167 L 2.384591 -2.968081 Z M 9.299401 -0.00105928 " transform="matrix(-0.948946, -0.308316, -0.308316, 0.948946, 140.386803, 248.512694)"/>
</g>
<path fill="none" stroke-width="1.59404" stroke-linecap="butt" stroke-linejoin="miter" stroke="rgb(5.488586%, 6.666565%, 8.625793%)" stroke-opacity="1" stroke-miterlimit="10" d="M -102.473842 -60.572894 C -117.072545 -15.64146 -117.072545 15.642593 -104.650532 53.867784 " transform="matrix(0.997788, 0, 0, -0.997788, 161.782294, 133.588456)"/>
<path fill-rule="nonzero" fill="rgb(5.488586%, 6.666565%, 8.625793%)" fill-opacity="1" stroke-width="1.59404" stroke-linecap="butt" stroke-linejoin="miter" stroke="rgb(5.488586%, 6.666565%, 8.625793%)" stroke-opacity="1" stroke-miterlimit="10" d="M 9.302173 -0.00141024 L 2.385458 2.966811 L 4.686731 0.0015035 L 2.387363 -2.968432 Z M 9.302173 -0.00141024 " transform="matrix(0.308316, -0.948946, -0.948946, -0.308316, 56.040806, 83.908856)"/>
<g fill="rgb(0%, 0%, 0%)" fill-opacity="1">
<use xlink:href="#glyph-2-0" x="124.356276" y="118.768315"/>
<use xlink:href="#glyph-2-1" x="131.46974" y="118.768315"/>
<use xlink:href="#glyph-2-2" x="136.55036" y="118.768315"/>
</g>
<g fill="rgb(0%, 0%, 0%)" fill-opacity="1">
<use xlink:href="#glyph-2-3" x="144.681738" y="118.768315"/>
<use xlink:href="#glyph-2-2" x="147.983992" y="118.768315"/>
<use xlink:href="#glyph-2-4" x="152.556649" y="118.768315"/>
<use xlink:href="#glyph-2-3" x="157.168075" y="118.768315"/>
<use xlink:href="#glyph-2-5" x="160.470329" y="118.768315"/>
<use xlink:href="#glyph-2-6" x="164.027061" y="118.768315"/>
<use xlink:href="#glyph-2-7" x="167.075831" y="118.768315"/>
<use xlink:href="#glyph-2-8" x="172.156451" y="118.768315"/>
<use xlink:href="#glyph-2-9" x="176.729108" y="118.768315"/>
<use xlink:href="#glyph-2-10" x="181.809728" y="118.768315"/>
<use xlink:href="#glyph-2-11" x="186.001662" y="118.768315"/>
<use xlink:href="#glyph-2-12" x="189.050432" y="118.768315"/>
<use xlink:href="#glyph-2-13" x="194.639015" y="118.768315"/>
</g>
<g fill="rgb(0%, 0%, 0%)" fill-opacity="1">
<use xlink:href="#glyph-2-6" x="134.092688" y="130.696867"/>
<use xlink:href="#glyph-2-2" x="137.141458" y="130.696867"/>
</g>
<g fill="rgb(0%, 0%, 0%)" fill-opacity="1">
<use xlink:href="#glyph-2-2" x="141.207147" y="130.696867"/>
</g>
<g fill="rgb(0%, 0%, 0%)" fill-opacity="1">
<use xlink:href="#glyph-2-14" x="145.272835" y="130.696867"/>
<use xlink:href="#glyph-2-15" x="150.353455" y="130.696867"/>
</g>
<g fill="rgb(0%, 0%, 0%)" fill-opacity="1">
<use xlink:href="#glyph-2-7" x="154.419144" y="130.696867"/>
<use xlink:href="#glyph-2-16" x="159.499764" y="130.696867"/>
<use xlink:href="#glyph-2-17" x="164.072422" y="130.696867"/>
</g>
<g fill="rgb(0%, 0%, 0%)" fill-opacity="1">
<use xlink:href="#glyph-2-18" x="172.193859" y="130.696867"/>
<use xlink:href="#glyph-2-9" x="174.733672" y="130.696867"/>
</g>
<g fill="rgb(0%, 0%, 0%)" fill-opacity="1">
<use xlink:href="#glyph-2-9" x="179.307324" y="130.696867"/>
<use xlink:href="#glyph-2-19" x="184.387944" y="130.696867"/>
</g>
<g fill="rgb(41.569519%, 43.920898%, 47.451782%)" fill-opacity="1">
<use xlink:href="#glyph-3-0" x="117.551364" y="148.737866"/>
<use xlink:href="#glyph-3-1" x="123.335989" y="148.737866"/>
<use xlink:href="#glyph-3-2" x="127.698712" y="148.737866"/>
<use xlink:href="#glyph-3-3" x="131.624846" y="148.737866"/>
</g>
<g fill="rgb(41.569519%, 43.920898%, 47.451782%)" fill-opacity="1">
<use xlink:href="#glyph-3-4" x="138.898173" y="148.737866"/>
<use xlink:href="#glyph-3-5" x="142.388511" y="148.737866"/>
<use xlink:href="#glyph-3-6" x="145.224361" y="148.737866"/>
<use xlink:href="#glyph-3-7" x="149.150494" y="148.737866"/>
</g>
<g fill="rgb(41.569519%, 43.920898%, 47.451782%)" fill-opacity="1">
<use xlink:href="#glyph-3-8" x="156.423821" y="148.737866"/>
</g>
<g fill="rgb(41.569519%, 43.920898%, 47.451782%)" fill-opacity="1">
<use xlink:href="#glyph-3-6" x="159.585722" y="148.737866"/>
<use xlink:href="#glyph-3-9" x="163.511855" y="148.737866"/>
<use xlink:href="#glyph-3-10" x="166.129808" y="148.737866"/>
<use xlink:href="#glyph-3-11" x="170.929122" y="148.737866"/>
<use xlink:href="#glyph-3-12" x="173.547074" y="148.737866"/>
<use xlink:href="#glyph-3-8" x="177.909798" y="148.737866"/>
</g>
<g fill="rgb(41.569519%, 43.920898%, 47.451782%)" fill-opacity="1">
<use xlink:href="#glyph-3-2" x="181.071699" y="148.737866"/>
</g>
<g fill="rgb(41.569519%, 43.920898%, 47.451782%)" fill-opacity="1">
<use xlink:href="#glyph-3-6" x="184.560447" y="148.737866"/>
<use xlink:href="#glyph-3-4" x="188.48658" y="148.737866"/>
</g>
<g fill="rgb(41.569519%, 43.920898%, 47.451782%)" fill-opacity="1">
<use xlink:href="#glyph-3-5" x="194.887521" y="148.737866"/>
<use xlink:href="#glyph-3-3" x="197.723371" y="148.737866"/>
<use xlink:href="#glyph-3-6" x="202.086095" y="148.737866"/>
</g>
<g fill="rgb(41.569519%, 43.920898%, 47.451782%)" fill-opacity="1">
<use xlink:href="#glyph-3-10" x="119.166782" y="158.180929"/>
<use xlink:href="#glyph-3-6" x="123.966096" y="158.180929"/>
<use xlink:href="#glyph-3-13" x="127.892229" y="158.180929"/>
<use xlink:href="#glyph-3-5" x="131.82711" y="158.180929"/>
<use xlink:href="#glyph-3-14" x="134.66296" y="158.180929"/>
</g>
<g fill="rgb(41.569519%, 43.920898%, 47.451782%)" fill-opacity="1">
<use xlink:href="#glyph-3-4" x="140.191516" y="158.180929"/>
<use xlink:href="#glyph-3-7" x="143.681854" y="158.180929"/>
</g>
<g fill="rgb(41.569519%, 43.920898%, 47.451782%)" fill-opacity="1">
<use xlink:href="#glyph-3-6" x="147.607192" y="158.180929"/>
</g>
<g fill="rgb(41.569519%, 43.920898%, 47.451782%)" fill-opacity="1">
<use xlink:href="#glyph-3-6" x="151.09594" y="158.180929"/>
</g>
<g fill="rgb(41.569519%, 43.920898%, 47.451782%)" fill-opacity="1">
<use xlink:href="#glyph-3-2" x="154.584687" y="158.180929"/>
<use xlink:href="#glyph-3-3" x="158.510821" y="158.180929"/>
<use xlink:href="#glyph-3-15" x="162.873544" y="158.180929"/>
<use xlink:href="#glyph-3-16" x="165.927292" y="158.180929"/>
<use xlink:href="#glyph-3-8" x="170.726606" y="158.180929"/>
<use xlink:href="#glyph-3-4" x="174.325893" y="158.180929"/>
<use xlink:href="#glyph-3-5" x="177.816231" y="158.180929"/>
</g>
<g fill="rgb(41.569519%, 43.920898%, 47.451782%)" fill-opacity="1">
<use xlink:href="#glyph-3-9" x="183.562684" y="158.180929"/>
<use xlink:href="#glyph-3-10" x="186.180637" y="158.180929"/>
<use xlink:href="#glyph-3-5" x="190.979951" y="158.180929"/>
<use xlink:href="#glyph-3-6" x="193.815801" y="158.180929"/>
<use xlink:href="#glyph-3-8" x="197.741934" y="158.180929"/>
<use xlink:href="#glyph-3-15" x="201.341221" y="158.180929"/>
</g>
<g fill="rgb(41.569519%, 43.920898%, 47.451782%)" fill-opacity="1">
<use xlink:href="#glyph-3-11" x="122.516355" y="167.624989"/>
<use xlink:href="#glyph-3-1" x="125.134308" y="167.624989"/>
<use xlink:href="#glyph-3-2" x="129.497031" y="167.624989"/>
</g>
<g fill="rgb(41.569519%, 43.920898%, 47.451782%)" fill-opacity="1">
<use xlink:href="#glyph-3-6" x="132.985779" y="167.624989"/>
<use xlink:href="#glyph-3-4" x="136.911912" y="167.624989"/>
</g>
<g fill="rgb(41.569519%, 43.920898%, 47.451782%)" fill-opacity="1">
<use xlink:href="#glyph-3-8" x="143.312853" y="167.624989"/>
</g>
<g fill="rgb(41.569519%, 43.920898%, 47.451782%)" fill-opacity="1">
<use xlink:href="#glyph-3-6" x="146.474755" y="167.624989"/>
<use xlink:href="#glyph-3-8" x="150.400888" y="167.624989"/>
</g>
<g fill="rgb(41.569519%, 43.920898%, 47.451782%)" fill-opacity="1">
<use xlink:href="#glyph-3-12" x="153.562789" y="167.624989"/>
<use xlink:href="#glyph-3-17" x="157.925513" y="167.624989"/>
<use xlink:href="#glyph-3-5" x="162.506134" y="167.624989"/>
<use xlink:href="#glyph-3-6" x="165.341984" y="167.624989"/>
</g>
<g fill="rgb(41.569519%, 43.920898%, 47.451782%)" fill-opacity="1">
<use xlink:href="#glyph-3-5" x="172.178721" y="167.624989"/>
<use xlink:href="#glyph-3-3" x="175.014571" y="167.624989"/>
<use xlink:href="#glyph-3-6" x="179.377294" y="167.624989"/>
</g>
<g fill="rgb(41.569519%, 43.920898%, 47.451782%)" fill-opacity="1">
<use xlink:href="#glyph-3-18" x="186.214031" y="167.624989"/>
<use xlink:href="#glyph-3-12" x="188.395393" y="167.624989"/>
</g>
<g fill="rgb(41.569519%, 43.920898%, 47.451782%)" fill-opacity="1">
<use xlink:href="#glyph-3-12" x="192.320731" y="167.624989"/>
<use xlink:href="#glyph-3-7" x="196.683455" y="167.624989"/>
</g>
</svg>
